<?xml version="1.0" encoding="UTF-8" standalone="yes"?>
<svg version="1.2" width="500" height="500" baseProfile="tiny-ps" xmlns="http://www.w3.org/2000/svg">
  <title>bimi-svg-tiny-12-ps</title>
  <path d="M0 0 C3.63 0 7.26 0 11 0 C11.33 6.27 11.66 12.54 12 19 C13.423125 17.700625 14.84625 16.40125 16.3125 15.0625 C21.04150063 10.79964372 25.89585945 6.75032953 30.84765625 2.75 C32.85596185 1.17822462 32.85596185 1.17822462 34 0 C36.01964199 -0.07244053 38.04167124 -0.08377188 40.0625 -0.0625 C41.71958984 -0.04896484 41.71958984 -0.04896484 43.41015625 -0.03515625 C44.26480469 -0.02355469 45.11945313 -0.01195312 46 0 C42.95006591 3.14831906 39.78896546 6.10087853 36.5 9 C34.99944728 10.33271126 33.49940147 11.66599363 32 13 C31.44183594 13.48984375 30.88367188 13.9796875 30.30859375 14.484375 C28.77679233 15.85000552 28.77679233 15.85000552 27 18 C26.56190987 22.0364404 26.56190987 22.0364404 29.125 24.4375 C32.03050864 27.02719248 35.00498492 29.51477472 38 32 C38.7425 32.763125 39.485 33.52625 40.25 34.3125 C41.83476788 36.23137852 41.83476788 36.23137852 44 36 C44.14695313 35.46632813 44.29390625 34.93265625 44.4453125 34.3828125 C46.12464452 28.80434175 48.50868085 24.19568649 51.59375 19.265625 C53.25375504 16.59117243 54.61567207 13.82633619 56 11 C57.97960615 7.32212707 59.98763279 3.66003356 62 0 C65.3 0 68.6 0 72 0 C89 30.39393939 89 30.39393939 89 34 C89.66 34 90.32 34 91 34 C91.99 36.97 92.98 39.94 94 43 C90.62136603 43.28525052 87.37012464 43.43011284 84 43 C80.94775521 39.75698992 80.44528982 36.33586946 79 32 C71.08 32 63.16 32 55 32 C54.01 34.97 53.02 37.94 52 41 C51.505 41.99 51.505 41.99 51 43 C44.6606461 44.21391883 38.28314029 45.21446711 32.671875 41.4296875 C27.64585252 37.07038229 23.23541399 32.12062913 19 27 C16.08482708 28.07401108 14.22189824 28.77810176 12 31 C11.53603307 33.89223503 11.53603307 33.89223503 11.375 37.125 C11.30023438 38.22070312 11.22546875 39.31640625 11.1484375 40.4453125 C11.09945312 41.28835938 11.05046875 42.13140625 11 43 C7.37 43 3.74 43 0 43 C0 28.81 0 14.62 0 0 Z M66 11 C65.401875 12.175625 64.80375 13.35125 64.1875 14.5625 C63.85105469 15.22378906 63.51460937 15.88507813 63.16796875 16.56640625 C61.68049856 19.66571704 60.3542058 22.84018646 59 26 C64.28 26 69.56 26 75 26 C72.7748478 20.93586052 70.52498068 15.92371233 68 11 C67.34 11 66.68 11 66 11 Z " fill="#FFFFFF" transform="translate(99,353)"/>
  <path d="M0 0 C4.90875 -0.0825 9.8175 -0.165 14.875 -0.25 C16.40237793 -0.28641602 17.92975586 -0.32283203 19.50341797 -0.36035156 C29.37078992 -0.44024931 37.3847664 0.54565055 45 7.3125 C48.89583614 11.61166976 49.7936743 15.73041733 50.3125 21.4375 C49.74866396 27.86523084 47.87234269 33.27143233 42.89550781 37.5871582 C34.40831745 43.9131977 24.97329433 43.49076533 14.875 43.25 C9.96625 43.1675 5.0575 43.085 0 43 C0 28.81 0 14.62 0 0 Z M9 6 C9 16.23 9 26.46 9 37 C23.92076039 37.88971901 23.92076039 37.88971901 36.5 31.5625 C36.995 30.716875 37.49 29.87125 38 29 C38.4125 28.38125 38.825 27.7625 39.25 27.125 C40.63201876 23.20928017 40.69982768 19.81751363 39.1953125 15.91015625 C36.69978956 11.28913619 33.86323282 8.51502058 28.95703125 6.609375 C22.37813597 5.25361851 15.67914032 5.78963338 9 6 Z " fill="#FFFFFF" transform="translate(258,353)"/>
  <path d="M0 0 C3.3 0 6.6 0 10 0 C10.01458252 0.74572266 10.02916504 1.49144531 10.04418945 2.25976562 C10.11915338 5.6736704 10.21565438 9.08664869 10.3125 12.5 C10.33505859 13.67304688 10.35761719 14.84609375 10.38085938 16.0546875 C10.58435833 22.6406538 10.93190522 28.10251805 14 34 C17.77906048 36.92896507 22.42995501 36.49780847 27 36 C30.01950153 35.20572041 30.01950153 35.20572041 32 33 C34.27751589 26.0776578 34.42591086 19.24186731 34.625 12 C34.66367187 10.84371094 34.70234375 9.68742187 34.7421875 8.49609375 C34.83580332 5.6642152 34.92153675 2.83233206 35 0 C38.3 0 41.6 0 45 0 C45.14977605 4.1073201 45.25787183 8.21355567 45.32958984 12.32299805 C45.3595233 13.71683482 45.40028771 15.11048713 45.45263672 16.50366211 C45.74402733 24.46548213 45.68575142 30.78207932 40.65332031 37.33422852 C35.61955786 42.40590029 29.80643243 44.12889294 22.8125 44.25 C15.9825045 44.16804005 10.09471549 42.8299802 4.5625 38.6875 C0.06290219 33.96840961 -0.24944712 29.18531316 -0.1953125 22.8515625 C-0.1924826 22.19417084 -0.18965271 21.53677917 -0.18673706 20.85946655 C-0.17563447 18.78111767 -0.15054986 16.70321634 -0.125 14.625 C-0.11495731 13.20703752 -0.10583373 11.78906821 -0.09765625 10.37109375 C-0.07572805 6.91391963 -0.04126818 3.45700358 0 0 Z " fill="#FFFFFF" transform="translate(314,353)"/>
  <path d="M0 0 C3.107379 1.83065154 4.7740985 4.08764077 6.796875 7.05859375 C6.796875 7.71859375 6.796875 8.37859375 6.796875 9.05859375 C7.456875 9.05859375 8.116875 9.05859375 8.796875 9.05859375 C8.796875 12.02859375 8.796875 14.99859375 8.796875 18.05859375 C8.136875 18.05859375 7.476875 18.05859375 6.796875 18.05859375 C6.590625 18.96609375 6.384375 19.87359375 6.171875 20.80859375 C4.4570096 24.86191197 2.59836251 25.96389655 -1.203125 28.05859375 C-6.80465023 29.92576883 -13.54665225 30.05042411 -19.078125 27.80859375 C-26.36979167 23.72526042 -26.36979167 23.72526042 -28.578125 19.30859375 C-29.45225838 14.76310018 -29.31960489 10.29155353 -27.203125 6.05859375 C-26.543125 6.05859375 -25.883125 6.05859375 -25.203125 6.05859375 C-24.81833984 5.13820313 -24.81833984 5.13820313 -24.42578125 4.19921875 C-19.66016171 -4.14442185 -7.65930759 -3.20159057 0 0 Z " fill="#FFFFFF" transform="translate(127.203125,262.94140625)"/>
  <path d="M0 0 C7.29166667 4.08333333 7.29166667 4.08333333 9.5 8.5 C10.37413338 13.04549357 10.24147989 17.51704022 8.125 21.75 C7.465 21.75 6.805 21.75 6.125 21.75 C5.74021484 22.67039062 5.74021484 22.67039062 5.34765625 23.609375 C3.26640741 27.25322281 0.00212955 28.45318995 -3.875 29.75 C-9.82259957 30.69127228 -15.65866656 29.82310079 -20.875 26.75 C-22.95038157 24.86099979 -24.27352914 23.10216033 -25.875 20.75 C-25.875 20.09 -25.875 19.43 -25.875 18.75 C-26.535 18.75 -27.195 18.75 -27.875 18.75 C-27.875 15.78 -27.875 12.81 -27.875 9.75 C-27.215 9.75 -26.555 9.75 -25.875 9.75 C-25.66875 8.8425 -25.4625 7.935 -25.25 7 C-23.5351346 2.94668178 -21.67648751 1.8446972 -17.875 -0.25 C-12.27347477 -2.11717508 -5.53147275 -2.24183036 0 0 Z " fill="#FFFFFF" transform="translate(391.875,81.25)"/>
  <path d="M0 0 C7.29166667 4.08333333 7.29166667 4.08333333 9.5 8.5 C10.37413338 13.04549357 10.24147989 17.51704022 8.125 21.75 C7.465 21.75 6.805 21.75 6.125 21.75 C5.898125 22.348125 5.67125 22.94625 5.4375 23.5625 C3.48104238 26.82326271 0.80822574 28.11153506 -2.6875 29.4375 C-9.2405255 30.3736465 -15.06454414 30.10742758 -20.875 26.75 C-22.95352928 24.86271555 -24.27284416 23.10316639 -25.875 20.75 C-25.875 20.09 -25.875 19.43 -25.875 18.75 C-26.535 18.75 -27.195 18.75 -27.875 18.75 C-27.875 15.78 -27.875 12.81 -27.875 9.75 C-27.215 9.75 -26.555 9.75 -25.875 9.75 C-25.66875 8.8425 -25.4625 7.935 -25.25 7 C-23.5351346 2.94668178 -21.67648751 1.8446972 -17.875 -0.25 C-12.27347477 -2.11717508 -5.53147275 -2.24183036 0 0 Z " fill="#FFFFFF" transform="translate(391.875,217.25)"/>
  <path d="M0 0 C3.14129673 1.81512028 4.79791736 4.07098897 6.83203125 7.05859375 C6.83203125 7.71859375 6.83203125 8.37859375 6.83203125 9.05859375 C7.49203125 9.05859375 8.15203125 9.05859375 8.83203125 9.05859375 C8.83203125 12.02859375 8.83203125 14.99859375 8.83203125 18.05859375 C8.17203125 18.05859375 7.51203125 18.05859375 6.83203125 18.05859375 C6.62578125 18.96609375 6.41953125 19.87359375 6.20703125 20.80859375 C4.49216585 24.86191197 2.63351876 25.96389655 -1.16796875 28.05859375 C-6.76949398 29.92576883 -13.511496 30.05042411 -19.04296875 27.80859375 C-26.33463542 23.72526042 -26.33463542 23.72526042 -28.54296875 19.30859375 C-29.41710213 14.76310018 -29.28444864 10.29155353 -27.16796875 6.05859375 C-26.50796875 6.05859375 -25.84796875 6.05859375 -25.16796875 6.05859375 C-24.92304687 5.445 -24.678125 4.83140625 -24.42578125 4.19921875 C-19.66712297 -3.89936738 -7.49729544 -3.09060108 0 0 Z " fill="#FFFFFF" transform="translate(127.16796875,126.94140625)"/>
  <path d="M0 0 C2.21934004 1.49183854 2.90337381 2.81187333 3.8828125 5.265625 C4.5428125 5.265625 5.2028125 5.265625 5.8828125 5.265625 C8.50176298 10.04135823 7.71400681 14.10997381 6.8828125 19.265625 C5.8928125 19.595625 4.9028125 19.925625 3.8828125 20.265625 C3.5940625 20.884375 3.3053125 21.503125 3.0078125 22.140625 C1.22791941 25.50264529 -1.81705144 26.61555697 -5.1171875 28.265625 C-12.55910902 28.96402071 -18.94741814 28.79630776 -25.1171875 24.265625 C-27.66509176 21.63809873 -28.1171875 20.95846926 -28.1171875 17.265625 C-28.7771875 17.265625 -29.4371875 17.265625 -30.1171875 17.265625 C-30.1171875 14.295625 -30.1171875 11.325625 -30.1171875 8.265625 C-29.4571875 8.265625 -28.7971875 8.265625 -28.1171875 8.265625 C-27.8903125 7.523125 -27.6634375 6.780625 -27.4296875 6.015625 C-25.39360296 1.7495431 -22.5621643 -0.09216309 -18.3046875 -1.984375 C-11.23001224 -3.64900447 -6.53047448 -2.86703758 0 0 Z " fill="#FFFFFF" transform="translate(394.1171875,263.734375)"/>
  <path d="M0 0 C3.74417732 2.02076345 5.9543472 3.39831767 8.34765625 6.98828125 C8.34765625 7.97828125 8.34765625 8.96828125 8.34765625 9.98828125 C9.00765625 9.98828125 9.66765625 9.98828125 10.34765625 9.98828125 C10.34765625 12.95828125 10.34765625 15.92828125 10.34765625 18.98828125 C9.68765625 18.98828125 9.02765625 18.98828125 8.34765625 18.98828125 C8.12078125 19.73078125 7.89390625 20.47328125 7.66015625 21.23828125 C5.62407171 25.50436315 2.79263305 27.34606934 -1.46484375 29.23828125 C-8.53951901 30.90291072 -13.23905677 30.12094383 -19.76953125 27.25390625 C-22.00515137 25.75112426 -22.49942756 24.3716206 -23.65234375 21.98828125 C-24.64234375 21.65828125 -25.63234375 21.32828125 -26.65234375 20.98828125 C-28.16942803 11.57825847 -28.16942803 11.57825847 -25.65234375 6.98828125 C-24.99234375 6.98828125 -24.33234375 6.98828125 -23.65234375 6.98828125 C-23.42546875 6.39015625 -23.19859375 5.79203125 -22.96484375 5.17578125 C-18.54794406 -2.18571823 -7.31939973 -2.79193598 0 0 Z " fill="#FFFFFF" transform="translate(125.65234375,81.01171875)"/>
  <path d="M0 0 C4.1829634 2.61435212 7.26907353 5.16627248 8.59765625 10.08984375 C9.22966684 14.45580195 9.47000933 18.06706895 7 21.875 C1.6232719 27.27814936 -2.07180785 29.02607742 -9.8125 29.125 C-11.61654297 29.16367187 -11.61654297 29.16367187 -13.45703125 29.203125 C-18.60567645 28.72629347 -21.82968094 27.1069148 -25.375 23.375 C-27 20.875 -27 20.875 -27 17.875 C-27.66 17.875 -28.32 17.875 -29 17.875 C-29 15.235 -29 12.595 -29 9.875 C-28.34 9.875 -27.68 9.875 -27 9.875 C-26.9175 9.1325 -26.835 8.39 -26.75 7.625 C-25.83227052 4.2599919 -24.69900053 3.04919487 -22 0.875 C-15.52556696 -2.28326002 -6.78397584 -2.52531259 0 0 Z " fill="#FFFFFF" transform="translate(393,308.125)"/>
  <path d="M0 0 C3.67363487 1.74446349 6.61644589 3.52859242 8.53515625 7.24609375 C8.53515625 8.23609375 8.53515625 9.22609375 8.53515625 10.24609375 C9.19515625 10.24609375 9.85515625 10.24609375 10.53515625 10.24609375 C10.53515625 12.88609375 10.53515625 15.52609375 10.53515625 18.24609375 C9.87515625 18.24609375 9.21515625 18.24609375 8.53515625 18.24609375 C8.49390625 18.96796875 8.45265625 19.68984375 8.41015625 20.43359375 C7.20893656 24.29465704 4.82872356 26.13265712 1.53515625 28.24609375 C-3.87304096 30.71505335 -9.23868568 31.24749321 -14.90625 29.48828125 C-21.0257799 26.99332042 -21.0257799 26.99332042 -22.72265625 24.10546875 C-22.96757813 23.491875 -23.2125 22.87828125 -23.46484375 22.24609375 C-24.12484375 22.24609375 -24.78484375 22.24609375 -25.46484375 22.24609375 C-28.08379423 17.47036052 -27.29603806 13.40174494 -26.46484375 8.24609375 C-25.47484375 7.91609375 -24.48484375 7.58609375 -23.46484375 7.24609375 C-23.17609375 6.62734375 -22.88734375 6.00859375 -22.58984375 5.37109375 C-18.56428332 -2.23274262 -7.19853836 -2.20177164 0 0 Z " fill="#FFFFFF" transform="translate(125.46484375,216.75390625)"/>
  <path d="M0 0 C1.20269531 -0.02578125 2.40539062 -0.0515625 3.64453125 -0.078125 C8.79317645 0.39870653 12.01718094 2.0180852 15.5625 5.75 C17.1875 8.25 17.1875 8.25 17.1875 11.25 C17.8475 11.25 18.5075 11.25 19.1875 11.25 C19.1875 13.89 19.1875 16.53 19.1875 19.25 C18.5275 19.25 17.8675 19.25 17.1875 19.25 C17.105 19.9925 17.0225 20.735 16.9375 21.5 C16.01977052 24.8650081 14.88650053 26.07580513 12.1875 28.25 C5.96707036 31.28435592 -1.33241438 31.18531612 -8.0390625 29.78515625 C-12.58860549 28.0916039 -15.27101471 25.28647664 -17.8125 21.25 C-18.89329582 17.24469785 -19.07045397 13.63650257 -18.3125 9.5625 C-13.70860908 2.46483484 -8.27932678 0.10580609 0 0 Z " fill="#FFFFFF" transform="translate(116.8125,170.75)"/>
  <path d="M0 0 C2.21934004 1.49183854 2.90337381 2.81187333 3.8828125 5.265625 C4.5428125 5.265625 5.2028125 5.265625 5.8828125 5.265625 C8.50176298 10.04135823 7.71400681 14.10997381 6.8828125 19.265625 C5.8928125 19.595625 4.9028125 19.925625 3.8828125 20.265625 C3.5940625 20.884375 3.3053125 21.503125 3.0078125 22.140625 C1.22791941 25.50264529 -1.81705144 26.61555697 -5.1171875 28.265625 C-12.55910902 28.96402071 -18.94741814 28.79630776 -25.1171875 24.265625 C-27.66509176 21.63809873 -28.1171875 20.95846926 -28.1171875 17.265625 C-28.7771875 17.265625 -29.4371875 17.265625 -30.1171875 17.265625 C-30.1171875 14.625625 -30.1171875 11.985625 -30.1171875 9.265625 C-29.4571875 9.265625 -28.7971875 9.265625 -28.1171875 9.265625 C-28.0759375 8.54375 -28.0346875 7.821875 -27.9921875 7.078125 C-26.79096781 3.21706171 -24.41075481 1.37906163 -21.1171875 -0.734375 C-13.53682055 -4.1949773 -7.32940768 -3.21778874 0 0 Z " fill="#FFFFFF" transform="translate(394.1171875,127.734375)"/>
  <path d="M0 0 C2.38246609 2.6289281 3 3.38834178 3 7 C3.66 7 4.32 7 5 7 C5 9.64 5 12.28 5 15 C4.34 15 3.68 15 3 15 C2.9175 15.7425 2.835 16.485 2.75 17.25 C1.83227052 20.6150081 0.69900053 21.82580513 -2 24 C-8.2638164 27.03931265 -15.82154403 27.21543138 -22.484375 25.27734375 C-26.65610172 23.34047063 -29.73131437 21.08363414 -32 17 C-32.98318666 13.00170757 -33.2540497 9.36551713 -32.5 5.3125 C-29.33336315 0.43060153 -25.35066412 -2.94363398 -19.6875 -4.5 C-12.89202222 -5.65000393 -5.4741051 -4.31293129 0 0 Z " fill="#FFFFFF" transform="translate(131,311)"/>
  <path d="M0 0 C1.1034375 -0.00515625 2.206875 -0.0103125 3.34375 -0.015625 C9.43911151 0.49735097 13.11533292 3.06020702 17.5 7.25 C19.94409974 11.07554742 19.72584745 14.6724207 19.1015625 19.03515625 C17.8184702 23.75926882 14.93971953 26.38740057 10.76171875 28.890625 C7.09907558 30.41709185 4.45408651 30.65101373 0.5 30.625 C-0.675625 30.63273437 -1.85125 30.64046875 -3.0625 30.6484375 C-8.12243328 30.06194523 -11.37879858 28.43021202 -14.875 24.75 C-16.5 22.25 -16.5 22.25 -16.5 19.25 C-17.16 19.25 -17.82 19.25 -18.5 19.25 C-18.5 16.61 -18.5 13.97 -18.5 11.25 C-17.84 11.25 -17.18 11.25 -16.5 11.25 C-16.4175 10.5075 -16.335 9.765 -16.25 9 C-15.33227052 5.6349919 -14.19900053 4.42419487 -11.5 2.25 C-7.57387674 0.32125763 -4.35343491 -0.02034315 0 0 Z " fill="#FFFFFF" transform="translate(382.5,170.75)"/>
  <path d="M0 0 C3.04257667 1.72412678 4.48354136 2.85321651 6.625 5.6875 C8.05371931 10.89212034 8.15114102 14.92157693 6.4375 20.0625 C3.22844089 24.72081162 -0.88812868 27.81800676 -6.5 28.875 C-13.93917033 29.37094469 -19.58669279 28.34497785 -25.375 23.4375 C-29.21023008 18.81266373 -30.02721195 15.99065856 -29.5 9.875 C-27.63172582 4.38007594 -24.39916066 1.66974847 -19.5 -1.125 C-12.88767039 -3.32910987 -6.3210955 -2.89600851 0 0 Z " fill="#FFFFFF" transform="translate(287.5,218.125)"/>
  <path d="M0 0 C4.46187321 3.78289251 6.77251525 6.54316469 7.3125 12.375 C6.9095863 17.04879894 5.96174235 20.27941747 2.34765625 23.44921875 C-3.85181594 28.02345933 -9.35852417 28.87672734 -17 28 C-22.06430527 26.38388057 -25.89522233 24.46220573 -29.125 20.1875 C-30.55371931 14.98287966 -30.65114102 10.95342307 -28.9375 5.8125 C-22.13965759 -4.05533576 -10.25476816 -5.53362222 0 0 Z " fill="#FFFFFF" transform="translate(235,128)"/>
  <path d="M0 0 C4.46187321 3.78289251 6.77251525 6.54316469 7.3125 12.375 C6.9095863 17.04879894 5.96174235 20.27941747 2.34765625 23.44921875 C-3.85181594 28.02345933 -9.35852417 28.87672734 -17 28 C-22.06430527 26.38388057 -25.89522233 24.46220573 -29.125 20.1875 C-30.55371931 14.98287966 -30.65114102 10.95342307 -28.9375 5.8125 C-22.13965759 -4.05533576 -10.25476816 -5.53362222 0 0 Z " fill="#FFFFFF" transform="translate(235,264)"/>
  <path d="M0 0 C3.82317882 2.54878588 5.98987008 4.45441538 7 9 C6.9904287 14.25464629 6.4383008 18.85032662 3 23 C-3.14706628 27.70839119 -8.40386116 28.7197695 -16 28 C-21.18285861 26.27238046 -26.19948029 23.98407813 -29.1171875 19.1484375 C-30.62069514 15.48945873 -30.46337988 11.88685811 -30 8 C-28.625 4.9375 -28.625 4.9375 -27 3 C-26.34 3 -25.68 3 -25 3 C-24.67 2.01 -24.34 1.02 -24 0 C-16.12766289 -4.52240642 -7.89023527 -4.33189388 0 0 Z " fill="#FFFFFF" transform="translate(235,219)"/>
  <path d="M0 0 C1.78515625 1.16796875 1.78515625 1.16796875 2.78515625 4.16796875 C3.77515625 4.49796875 4.76515625 4.82796875 5.78515625 5.16796875 C7.07182075 7.74129775 6.95340176 9.67019913 6.97265625 12.54296875 C6.98683594 13.49945313 7.00101562 14.4559375 7.015625 15.44140625 C6.70926947 19.06574799 5.89326625 21.15538547 3.19921875 23.6171875 C2.60882813 24.02582031 2.0184375 24.43445313 1.41015625 24.85546875 C0.82492187 25.27183594 0.2396875 25.68820312 -0.36328125 26.1171875 C-5.71220006 29.15275535 -12.63340195 28.94415153 -18.50390625 27.671875 C-23.07221425 26.15766055 -25.55503058 24.31727729 -28.21484375 20.16796875 C-30.19548503 16.20668619 -29.62400329 11.48551796 -29.21484375 7.16796875 C-27.32499237 2.4433403 -24.96550395 0.79403151 -20.46484375 -1.20703125 C-12.82114562 -3.87057467 -7.38733201 -3.30719323 0 0 Z " fill="#FFFFFF" transform="translate(341.21484375,263.83203125)"/>
  <path d="M0 0 C3.43062946 2.36332252 5.42234053 4.16056324 7 8 C7.60341774 12.38065607 7.44237302 16.01471464 5.625 20.0625 C5.08875 20.701875 4.5525 21.34125 4 22 C3.34 22 2.68 22 2 22 C2 22.66 2 23.32 2 24 C-4.14997178 27.64442772 -8.85222189 28.96938821 -16 28 C-21.44944129 26.53203035 -26.33899613 23.64250616 -29.375 18.8125 C-30.50550806 13.72521371 -29.83045211 8.96686026 -27.8125 4.1875 C-20.59489339 -4.52340453 -9.52523204 -5.1289711 0 0 Z " fill="#FFFFFF" transform="translate(288,264)"/>
  <path d="M0 0 C3.24773627 1.86486623 4.69036403 3.88279944 6.2109375 7.26953125 C6.4609375 10.14453125 6.4609375 10.14453125 6.2109375 12.26953125 C6.8709375 12.59953125 7.5309375 12.92953125 8.2109375 13.26953125 C7.5509375 13.26953125 6.8909375 13.26953125 6.2109375 13.26953125 C6.1284375 14.32140625 6.0459375 15.37328125 5.9609375 16.45703125 C5.12207337 20.72125727 4.38383671 22.34070121 1.2109375 25.26953125 C-4.42645096 28.5113551 -10.41132667 29.03027425 -16.7890625 28.26953125 C-22.04431385 26.63264968 -25.1817028 24.40738503 -28.7890625 20.26953125 C-30.01392062 17.81981501 -29.95629058 16.12718664 -29.9765625 13.39453125 C-29.99074219 12.53085937 -30.00492188 11.6671875 -30.01953125 10.77734375 C-29.77765502 8.14540245 -29.11889791 6.52972581 -27.7890625 4.26953125 C-27.1290625 4.26953125 -26.4690625 4.26953125 -25.7890625 4.26953125 C-25.4590625 3.27953125 -25.1290625 2.28953125 -24.7890625 1.26953125 C-16.53970961 -4.12774777 -8.74795242 -3.8087239 0 0 Z " fill="#FFFFFF" transform="translate(181.7890625,263.73046875)"/>
  <path d="M0 0 C5.86737551 5.2296173 5.86737551 5.2296173 6.16796875 9.2421875 C6.17763672 10.54542969 6.17763672 10.54542969 6.1875 11.875 C6.20167969 12.73867187 6.21585937 13.60234375 6.23046875 14.4921875 C5.98859252 17.1241288 5.32983541 18.73980544 4 21 C3.34 21 2.68 21 2 21 C1.505 22.485 1.505 22.485 1 24 C-4.12723168 27.35457828 -9.90613057 29.10388023 -16 28 C-21.21293624 26.59621384 -24.98725343 25.13331163 -28.625 21.0625 C-29.98380077 18.0360801 -30.38391074 16.26324126 -30 13 C-30.66 12.67 -31.32 12.34 -32 12 C-31.34 12 -30.68 12 -30 12 C-29.9175 10.948125 -29.835 9.89625 -29.75 8.8125 C-28.91113587 4.54827398 -28.17289921 2.92883004 -25 0 C-17.12093253 -4.53091871 -7.84732506 -4.46220444 0 0 Z " fill="#FFFFFF" transform="translate(342,219)"/>
  <path d="M0 0 C4.76898738 5.01355084 5.37640782 8.48927046 5.26171875 15.23828125 C4.87631221 19.30518312 3.93002472 21.13973778 1 24 C-4.86805377 27.30725999 -10.32136782 28.84808028 -17 28 C-20.17514567 26.96681768 -23.19861589 25.83285306 -26 24 C-26.33 23.01 -26.66 22.02 -27 21 C-27.99 20.67 -28.98 20.34 -30 20 C-31.2866645 17.426671 -31.16824551 15.49776962 -31.1875 12.625 C-31.20167969 11.66851562 -31.21585938 10.71203125 -31.23046875 9.7265625 C-30.92411322 6.10222076 -30.10811 4.01258328 -27.4140625 1.55078125 C-26.82367188 1.14214844 -26.23328125 0.73351562 -25.625 0.3125 C-25.03976563 -0.10386719 -24.45453125 -0.52023438 -23.8515625 -0.94921875 C-16.86109722 -4.91638154 -6.7835302 -3.97925328 0 0 Z " fill="#FFFFFF" transform="translate(183,219)"/>
  <path d="M0 0 C1.87907267 0.9496028 3.697652 2.01725864 5.5 3.10546875 C5.5 3.76546875 5.5 4.42546875 5.5 5.10546875 C6.49 5.43546875 7.48 5.76546875 8.5 6.10546875 C11.18937933 9.64412577 11.00886547 13.86218737 10.5 18.10546875 C8.68808883 23.54120225 5.43121601 26.44367258 0.5 29.10546875 C-5.75722254 31.06008247 -11.69845084 30.57941948 -17.67578125 28.08984375 C-21.72655035 25.90398976 -25.07461962 22.51118993 -26.5 18.10546875 C-26.98461228 12.87165609 -26.45098878 9.48435533 -23.5 5.10546875 C-16.79753284 -0.77305446 -8.68663218 -3.10818558 0 0 Z " fill="#FFFFFF" transform="translate(284.5,80.89453125)"/>
  <path d="M0 0 C3.96892204 2.17901602 7.12097279 4.05325217 9.5625 7.9375 C10.69300806 13.02478629 10.01795211 17.78313974 8 22.5625 C4.22214782 27.12197677 -0.12051375 29.39513256 -5.92578125 29.953125 C-13.51277978 30.11483722 -19.20395594 28.03805582 -24.8125 22.75 C-27.36360366 18.52194708 -27.38682221 14.56744899 -26.8125 9.75 C-25.4375 6.6875 -25.4375 6.6875 -23.8125 4.75 C-23.1525 4.75 -22.4925 4.75 -21.8125 4.75 C-21.8125 4.09 -21.8125 3.43 -21.8125 2.75 C-14.69867253 -1.46560146 -7.97070643 -3.13629971 0 0 Z " fill="#FFFFFF" transform="translate(231.8125,81.25)"/>
  <path d="M0 0 C4.76898738 5.01355084 5.37640782 8.48927046 5.26171875 15.23828125 C4.87631221 19.30518312 3.93002472 21.13973778 1 24 C-4.86805377 27.30725999 -10.32136782 28.84808028 -17 28 C-20.17514567 26.96681768 -23.19861589 25.83285306 -26 24 C-26.33 23.01 -26.66 22.02 -27 21 C-27.99 20.67 -28.98 20.34 -30 20 C-31.2866645 17.426671 -31.16824551 15.49776962 -31.1875 12.625 C-31.20167969 11.66851562 -31.21585938 10.71203125 -31.23046875 9.7265625 C-30.92411322 6.10222076 -30.10811 4.01258328 -27.4140625 1.55078125 C-26.82367188 1.14214844 -26.23328125 0.73351562 -25.625 0.3125 C-25.03976563 -0.10386719 -24.45453125 -0.52023438 -23.8515625 -0.94921875 C-16.86109722 -4.91638154 -6.7835302 -3.97925328 0 0 Z " fill="#FFFFFF" transform="translate(183,83)"/>
  <path d="M0 0 C2.48463814 3.99702658 2.56906036 8.4023536 2 13 C0.20097227 18.19719122 -2.25065673 20.32849441 -7 23 C-12.84394716 24.94798239 -20.22089313 25.06164275 -26 22.75 C-29.77602624 20.54731803 -32.06653637 18.55577272 -34.3125 14.8125 C-35.55030194 9.74876478 -34.79703038 4.99257596 -32.875 0.1875 C-29.66670195 -3.55551439 -25.90324677 -5.39442148 -21.25 -6.875 C-12.97266471 -7.19335905 -6.15907579 -5.63489913 0 0 Z " fill="#FFFFFF" transform="translate(293,313)"/>
  <path d="M0 0 C1.78515625 1.16796875 1.78515625 1.16796875 2.78515625 4.16796875 C3.77515625 4.49796875 4.76515625 4.82796875 5.78515625 5.16796875 C7.07182075 7.74129775 6.95340176 9.67019913 6.97265625 12.54296875 C6.98683594 13.49945313 7.00101562 14.4559375 7.015625 15.44140625 C6.70926947 19.06574799 5.89326625 21.15538547 3.19921875 23.6171875 C2.60882813 24.02582031 2.0184375 24.43445313 1.41015625 24.85546875 C0.82492187 25.27183594 0.2396875 25.68820313 -0.36328125 26.1171875 C-5.71220006 29.15275535 -12.63340195 28.94415153 -18.50390625 27.671875 C-23.07221425 26.15766055 -25.55503058 24.31727729 -28.21484375 20.16796875 C-30.31135965 15.97493694 -29.83732938 10.54595343 -28.671875 6.09375 C-26.82770667 2.10238098 -24.45104677 0.4905307 -20.46484375 -1.26953125 C-12.8231907 -3.85404348 -7.36434482 -3.29690223 0 0 Z " fill="#FFFFFF" transform="translate(341.21484375,127.83203125)"/>
  <path d="M0 0 C2.39412945 2.23369809 3.37129578 4.36626986 3.81640625 7.59765625 C3.84098741 12.32543273 3.69521875 15.62300841 0.515625 19.4140625 C-0.144375 19.4140625 -0.804375 19.4140625 -1.484375 19.4140625 C-1.814375 20.4040625 -2.144375 21.3940625 -2.484375 22.4140625 C-8.46942068 25.85228023 -14.77283602 26.67168799 -21.50390625 24.875 C-26.17819893 23.02157676 -30.16266004 20.51679084 -32.859375 16.2265625 C-33.98988306 11.13927621 -33.31482711 6.38092276 -31.296875 1.6015625 C-22.73092149 -8.73665725 -10.02140233 -6.99692505 0 0 Z " fill="#FFFFFF" transform="translate(291.484375,130.5859375)"/>
  <path d="M0 0 C2.75275762 3.08046687 3.89318103 4.77158184 4.25 8.875 C4.1675 9.57625 4.085 10.2775 4 11 C4.66 11.33 5.32 11.66 6 12 C5.34 12 4.68 12 4 12 C3.9175 13.051875 3.835 14.10375 3.75 15.1875 C2.91113587 19.45172602 2.17289921 21.07116996 -1 24 C-6.63738846 27.24182385 -12.62226417 27.760743 -19 27 C-24.25525135 25.36311843 -27.3926403 23.13785378 -31 19 C-32.22485812 16.55028376 -32.16722808 14.85765539 -32.1875 12.125 C-32.20167969 11.26132813 -32.21585938 10.39765625 -32.23046875 9.5078125 C-31.83423656 5.19626898 -30.36749889 3.35079439 -27.25 0.375 C-18.8189795 -6.24355474 -8.87442097 -5.09573643 0 0 Z " fill="#FFFFFF" transform="translate(184,129)"/>
  <path d="M0 0 C3.9285429 2.23387733 7.13629299 4.71008597 9.1875 8.8125 C9.30898305 10.43415752 9.36293652 12.06134327 9.375 13.6875 C9.38917969 14.55117187 9.40335937 15.41484375 9.41796875 16.3046875 C9.17609252 18.9366288 8.51733541 20.55230544 7.1875 22.8125 C6.5275 22.8125 5.8675 22.8125 5.1875 22.8125 C4.6925 24.2975 4.6925 24.2975 4.1875 25.8125 C-0.93973168 29.16707828 -6.71863057 30.91638023 -12.8125 29.8125 C-18.02543624 28.40871384 -21.79975343 26.94581163 -25.4375 22.875 C-26.79630077 19.8485801 -27.19641074 18.07574126 -26.8125 14.8125 C-27.4725 14.4825 -28.1325 14.1525 -28.8125 13.8125 C-28.1525 13.8125 -27.4925 13.8125 -26.8125 13.8125 C-26.750625 12.760625 -26.68875 11.70875 -26.625 10.625 C-25.64694526 6.03566624 -24.47392136 4.6779602 -20.8125 1.8125 C-13.9716058 -2.07742023 -7.40100312 -2.30523048 0 0 Z " fill="#FFFFFF" transform="translate(338.8125,81.1875)"/>
  <path d="M0 0 C3.595072 3.12614957 5.64552676 5.87522647 6.875 10.5 C7.14354981 15.69773832 6.32431888 20.47579464 2.875 24.5 C-2.66046922 29.0513858 -7.70339533 28.94134984 -14.72265625 28.93359375 C-21.03596548 28.12902736 -24.99593453 25.21893197 -29.125 20.5 C-30.79509208 15.48972375 -30.70292698 11.16956683 -29 6.25 C-23.08078194 -2.43151982 -9.28743851 -4.60316275 0 0 Z " fill="#FFFFFF" transform="translate(235.125,308.5)"/>
  <path d="M0 0 C4.16194235 2.4722649 7.1926599 4.98032346 8.7421875 9.62890625 C9.10836401 15.21309798 8.9968616 18.85538423 5.7421875 23.62890625 C-1.07895607 28.88687109 -6.88229058 29.23645706 -15.2578125 28.62890625 C-19.83448437 27.52531161 -23.31959839 25.32887957 -26.2578125 21.62890625 C-28.99755517 17.06266847 -28.34440411 12.64183731 -27.2578125 7.62890625 C-25.68679973 3.70137433 -23.39836139 1.34300887 -19.6171875 -0.64453125 C-13.36865634 -2.5687478 -6.01278833 -2.53056199 0 0 Z " fill="#FFFFFF" transform="translate(286.2578125,172.37109375)"/>
  <path d="M0 0 C3.77602624 2.20268197 6.06653637 4.19422728 8.3125 7.9375 C9.55030194 13.00123522 8.79703038 17.75742404 6.875 22.5625 C3.19830052 26.85198273 0.18967866 28.52084758 -5.359375 29.1015625 C-13.36963871 29.2874547 -18.64878712 28.72885589 -24.8125 23.25 C-28.0086046 19.59730903 -28.29880815 16.59754436 -28.2109375 11.80859375 C-27.87656501 8.54536592 -26.83882194 6.44693884 -25 3.75 C-17.85589405 -1.756915 -8.60750045 -3.44300018 0 0 Z " fill="#FFFFFF" transform="translate(233,172.25)"/>
  <path d="M0 0 C1 3 1 3 0.0625 5.1875 C-0.4634375 6.0846875 -0.4634375 6.0846875 -1 7 C-3.81016056 7.1605806 -5.71371804 7.12269227 -8.32421875 6.00390625 C-11.2813136 4.89445607 -13.47984501 4.76484614 -16.625 4.8125 C-17.56601562 4.81894531 -18.50703125 4.82539063 -19.4765625 4.83203125 C-22.12600912 4.90171342 -22.12600912 4.90171342 -25 6 C-26.00217064 9.58327753 -26.00217064 9.58327753 -25 13 C-23.17397524 13.6988873 -23.17397524 13.6988873 -20.95703125 14.18359375 C-20.13009766 14.38919922 -19.30316406 14.59480469 -18.45117188 14.80664062 C-17.1450293 15.11891602 -17.1450293 15.11891602 -15.8125 15.4375 C-1.77979018 18.80492545 -1.77979018 18.80492545 1.875 23.3125 C3.23833511 26.56935609 3.50047119 28.49670169 3 32 C1.05418382 36.42230951 -1.20782434 38.41522848 -5.5 40.375 C-13.89177345 43.3411644 -23.61941148 43.00841639 -32 40 C-34.19154756 38.81121023 -36.01454336 37.52727434 -38 36 C-37 34 -36 32 -35 30 C-31.87195687 30.48875674 -29.20134431 31.32023835 -26.3125 32.5625 C-21.62024953 34.37885502 -16.97731958 34.65179185 -12 34 C-9.76673921 33.05655008 -9.76673921 33.05655008 -8 32 C-8 30.35 -8 28.7 -8 27 C-12.47511279 24.8144798 -16.67759024 23.57972377 -21.5625 22.5625 C-28.10204352 21.12680711 -32.17860138 19.73209793 -36 14 C-36.3250177 9.96978053 -36.34524515 7.08505617 -35.125 3.25 C-26.80592905 -5.55842806 -10.23868626 -5.31624094 0 0 Z " fill="#FFFFFF" transform="translate(402,355)"/>
  <path d="M0 0 C3.89083382 2.31131469 6.92519335 4.70635434 8.47265625 9.05859375 C9.13112669 14.02629475 9.03178583 17.85087385 6.91015625 22.43359375 C2.9631279 26.68423966 0.07727538 28.76955248 -5.66015625 29.40625 C-13.53847716 29.61262971 -18.39900064 28.90886192 -24.33984375 23.49609375 C-27.32208787 20.17302173 -27.6824377 18.55192869 -27.71484375 14.18359375 C-27.72902344 13.31992188 -27.74320313 12.45625 -27.7578125 11.56640625 C-27.43495846 8.05331651 -26.54639983 5.96960533 -23.90625 3.609375 C-23.30683594 3.20074219 -22.70742187 2.79210937 -22.08984375 2.37109375 C-21.49300781 1.95472656 -20.89617187 1.53835937 -20.28125 1.109375 C-14.61335832 -2.28631066 -6.07881527 -2.26428822 0 0 Z " fill="#FFFFFF" transform="translate(179.52734375,171.94140625)"/>
  <path d="M0 0 C3.40566362 2.46910613 6.59368076 4.99986151 8.5 8.8125 C8.62148305 10.43415752 8.67543652 12.06134327 8.6875 13.6875 C8.70167969 14.55117188 8.71585937 15.41484375 8.73046875 16.3046875 C8.40761471 19.81777724 7.51905608 21.90148842 4.87890625 24.26171875 C4.27949219 24.67035156 3.68007813 25.07898438 3.0625 25.5 C2.46566406 25.91636719 1.86882812 26.33273437 1.25390625 26.76171875 C-4.066034 29.94894353 -10.53376279 29.43941276 -16.5 28.8125 C-20.71104696 27.24393382 -23.49627983 24.91031894 -26.5 21.625 C-28.4870821 16.0363316 -28.42932465 10.81984125 -25.9375 5.4375 C-18.82760543 -2.21930954 -9.85277321 -3.3429052 0 0 Z " fill="#FFFFFF" transform="translate(339.5,308.1875)"/>
  <path d="M0 0 C3.89083382 2.31131469 6.92519335 4.70635434 8.47265625 9.05859375 C9.13112669 14.02629475 9.03178583 17.85087385 6.91015625 22.43359375 C2.9631279 26.68423966 0.07727538 28.76955248 -5.66015625 29.40625 C-13.53847716 29.61262971 -18.39900064 28.90886192 -24.33984375 23.49609375 C-27.32208787 20.17302173 -27.6824377 18.55192869 -27.71484375 14.18359375 C-27.72902344 13.31992187 -27.74320313 12.45625 -27.7578125 11.56640625 C-27.43495846 8.05331651 -26.54639983 5.96960533 -23.90625 3.609375 C-23.30683594 3.20074219 -22.70742187 2.79210937 -22.08984375 2.37109375 C-21.49300781 1.95472656 -20.89617187 1.53835938 -20.28125 1.109375 C-14.61335832 -2.28631066 -6.07881527 -2.26428822 0 0 Z " fill="#FFFFFF" transform="translate(179.52734375,307.94140625)"/>
  <path d="M0 0 C3.40566362 2.46910613 6.59368076 4.99986151 8.5 8.8125 C8.62148305 10.43415752 8.67543652 12.06134327 8.6875 13.6875 C8.70167969 14.55117187 8.71585937 15.41484375 8.73046875 16.3046875 C8.40761471 19.81777724 7.51905608 21.90148842 4.87890625 24.26171875 C4.27949219 24.67035156 3.68007813 25.07898438 3.0625 25.5 C2.46566406 25.91636719 1.86882812 26.33273438 1.25390625 26.76171875 C-4.066034 29.94894353 -10.53376279 29.43941276 -16.5 28.8125 C-20.71104696 27.24393382 -23.49627983 24.91031894 -26.5 21.625 C-28.4870821 16.0363316 -28.42932465 10.81984125 -25.9375 5.4375 C-18.82760543 -2.21930954 -9.85277321 -3.3429052 0 0 Z " fill="#FFFFFF" transform="translate(339.5,172.1875)"/>
  <path d="M0 0 C3.63 0 7.26 0 11 0 C11 12.21 11 24.42 11 37 C19.91 37 28.82 37 38 37 C38 38.98 38 40.96 38 43 C25.46 43 12.92 43 0 43 C0 28.81 0 14.62 0 0 Z " fill="#FFFFFF" transform="translate(195,353)"/>
  <path d="M0 0 C3.3 0 6.6 0 10 0 C10 14.19 10 28.38 10 43 C6.7 43 3.4 43 0 43 C0 28.81 0 14.62 0 0 Z " fill="#FFFFFF" transform="translate(237,353)"/>
</svg>