<?xml version="1.0" encoding="UTF-8" standalone="yes"?>
<svg version="1.2" width="300" height="300" baseProfile="tiny-ps" xmlns="http://www.w3.org/2000/svg">
  <title>bimi-svg-tiny-12-ps</title>
  <path d="M0 0 C99 0 198 0 300 0 C300 99 300 198 300 300 C201 300 102 300 0 300 C0 201 0 102 0 0 Z " fill="#010101" transform="translate(0,0)"/>
  <path d="M0 0 C14.58680819 -0.70128886 14.58680819 -0.70128886 20.546875 3.61328125 C23.58637392 6.51387834 24.33152015 8.75409502 24.4375 12.8125 C24.36421046 16.39845243 24.04609637 18.65532538 21.8125 21.5 C16.94818469 25.82383583 13.11177687 26.24507994 6.6875 26.125 C3.3771875 26.063125 3.3771875 26.063125 0 26 C0 17.42 0 8.84 0 0 Z " fill="#DDDDDD" transform="translate(155,212)"/>
  <path d="M0 0 C1.32 0 2.64 0 4 0 C4 4.29 4 8.58 4 13 C4.66 12.34 5.32 11.68 6 11 C6.45246094 10.55269531 6.90492187 10.10539063 7.37109375 9.64453125 C8.59206273 8.41185034 9.78874221 7.15503062 10.97265625 5.88671875 C11.66230469 5.16097656 12.35195312 4.43523437 13.0625 3.6875 C13.71347656 2.99011719 14.36445312 2.29273438 15.03515625 1.57421875 C17 0 17 0 21 0 C19.59155282 3.21524305 17.89655214 5.32183868 15.375 7.75 C14.74335937 8.36359375 14.11171875 8.9771875 13.4609375 9.609375 C12.73777344 10.29773438 12.73777344 10.29773438 12 11 C13.36370299 13.99220268 14.94908083 16.29026529 17.125 18.75 C17.66382812 19.36359375 18.20265625 19.9771875 18.7578125 20.609375 C19.37269531 21.29773438 19.37269531 21.29773438 20 22 C23.76910228 17.62032663 25.70785812 12.1958799 27.95117188 6.93554688 C28.45293945 5.81696289 28.45293945 5.81696289 28.96484375 4.67578125 C29.2599585 3.99427002 29.55507324 3.31275879 29.85913086 2.6105957 C31 1 31 1 33.12719727 0.27026367 C34.05423462 0.13648315 34.05423462 0.13648315 35 0 C36.27339482 2.51956743 37.54376642 5.04058649 38.8125 7.5625 C39.16892578 8.26697266 39.52535156 8.97144531 39.89257812 9.69726562 C46 21.85607798 46 21.85607798 46 26 C44.125 25.8125 44.125 25.8125 42 25 C41.34 23.35 40.68 21.7 40 20 C35.71 20 31.42 20 27 20 C26.34 21.98 25.68 23.96 25 26 C22.07696988 26.6219213 20.80655498 26.8623778 18 26 C15.37340486 23.6001305 13.16817098 21.03884607 10.91796875 18.28515625 C9.20514663 15.93691039 9.20514663 15.93691039 7 15 C6.67 15.99 6.34 16.98 6 18 C5.34 18 4.68 18 4 18 C4 20.64 4 23.28 4 26 C2.68 26 1.36 26 0 26 C0 17.42 0 8.84 0 0 Z " fill="#E6E6E6" transform="translate(74,212)"/>
  <path d="M0 0 C11.33234914 -0.49271083 11.33234914 -0.49271083 14.35546875 1.73828125 C16.6593549 4.90680876 16.64364266 6.99125135 16.4296875 10.8046875 C16 13 16 13 14.1875 16.0625 C9.38336838 18.98265844 5.56347225 18.33514893 0 18 C0 12.06 0 6.12 0 0 Z " fill="#040404" transform="translate(159,216)"/>
  <path d="M0 0 C3.68386204 0.8062545 5.1556308 2.38804811 7.1953125 5.48046875 C7.8203125 8.98046875 7.8203125 8.98046875 7.1953125 12.48046875 C4.65990078 16.01467903 2.89069808 17.25288801 -1.2421875 18.60546875 C-4.8046875 18.48046875 -4.8046875 18.48046875 -8.2421875 16.54296875 C-11.23807574 12.96251695 -11.23807574 12.96251695 -11.4296875 9.48046875 C-11.17754925 6.64793688 -10.63054573 5.11704245 -9.3671875 2.48046875 C-6.12138727 -0.05283875 -4.04344926 -0.24687727 0 0 Z " fill="#F0F0F0" transform="translate(192.8046875,184.51953125)"/>
  <path d="M0 0 C3.68435029 1.04736571 5.06058191 3.38348198 6.9375 6.55078125 C7.67240789 10.55194642 7.32564018 11.96857099 5.0625 15.36328125 C2.32036658 18.18606565 1.52392602 18.49648254 -2.4375 18.86328125 C-6.0625 18.55078125 -6.0625 18.55078125 -8.4375 16.67578125 C-11.33644168 12.88485752 -11.54853989 10.33017349 -11.0625 5.55078125 C-8.03486999 1.10394968 -5.24561543 -0.34772072 0 0 Z " fill="#F2F2F2" transform="translate(166.0625,102.44921875)"/>
  <path d="M0 0 C3.96709261 0.72864966 6.06987029 1.84825444 9.0625 4.5625 C10.1875 7.9375 10.1875 7.9375 10.0625 11.5625 C7.12579114 17.03085443 7.12579114 17.03085443 4.0625 18.5625 C-0.23072859 19.04852588 -2.25832639 19.02491608 -5.875 16.5625 C-8.16886937 13.22596274 -8.6920711 11.46287614 -8.421875 7.5 C-7.28621055 2.95734218 -4.43059578 0.84841196 0 0 Z " fill="#F2F2F2" transform="translate(108.9375,75.4375)"/>
  <path d="M0 0 C4.6 2.2 4.6 2.2 6 5 C6.28383668 7.93297902 6.49075943 10.15133893 6 13 C3.38118131 16.09496755 1.36749875 16.88843788 -2.5 18.0625 C-6 18 -6 18 -8.875 15.6875 C-11.12176589 12.84600196 -11.90217401 11.73369494 -12.375 8.1875 C-12 5 -12 5 -9.9375 2.125 C-6.25541383 -0.5386368 -4.45883347 -0.63697621 0 0 Z " fill="#F2F2F2" transform="translate(221,185)"/>
  <path d="M0 0 C4.10198969 1.34246935 5.88827306 2.64878144 8.4375 6.125 C8.99098638 9.99940468 8.73718563 12.90544012 6.4375 16.125 C2.99949608 18.67166957 -0.41356275 18.63451861 -4.5625 18.125 C-7.48789902 16.13323896 -9.14979794 14.67575925 -10.078125 11.1875 C-10.43431493 6.91322086 -9.82914901 5.44367809 -7 2.0625 C-3.5625 0.125 -3.5625 0.125 0 0 Z " fill="#F3F3F3" transform="translate(191.5625,129.875)"/>
  <path d="M0 0 C2.69990662 1.79993774 4.5418865 3.083773 6 6 C6.55881444 10.09797257 6.1370529 11.76872323 4 15.375 C0.47775176 18.45696721 0.47775176 18.45696721 -3 18.6875 C-6.18845573 18.41575661 -7.2010566 17.86596227 -10 16 C-12.20809832 12.68785252 -12.81013892 10.85009577 -12.55078125 6.9375 C-10.89487619 1.11247227 -5.51629276 -1.05631138 0 0 Z " fill="#F3F3F3" transform="translate(221,103)"/>
  <path d="M0 0 C2.92539902 1.99176104 4.58729794 3.44924075 5.515625 6.9375 C5.70230546 9.17766547 5.61118074 10.83467394 5 13 C1.96373798 16.55464822 0.02711664 17.80178451 -4.5625 18.6875 C-8 18 -8 18 -10.9375 15.375 C-13.18591175 11.69578077 -13.80478766 10.20277998 -13 6 C-9.27891473 0.41837209 -6.70473214 -0.68183717 0 0 Z " fill="#F3F3F3" transform="translate(195,76)"/>
  <path d="M0 0 C2.75329021 1.79562405 4.52627461 3.05254922 6 6 C6.43023798 9.87214182 6.31669086 11.52496371 4.125 14.8125 C1.43302791 17.58364773 0.549607 17.9274104 -3.3125 18.4375 C-7 18 -7 18 -9.9375 15.4375 C-11.72861311 12.91447024 -12.06468531 11.63129375 -12.625 8.4375 C-11.31842905 1.25135978 -6.9949306 -1.12418528 0 0 Z " fill="#F3F3F3" transform="translate(167,76)"/>
  <path d="M0 0 C3.75514634 2.0408404 4.77457968 3.28395898 6.0625 7.375 C5.98603205 11.81014124 4.80644332 13.63226802 2 17 C-1.13871188 18.56935594 -3.53855822 18.35201103 -7 18 C-9.91963173 16.01216563 -11.61102978 14.5685303 -12.48046875 11.0625 C-12.75815509 7.09984094 -12.23092162 5.33588599 -9.9375 2 C-6.23727467 -0.51930235 -4.3968344 -0.7066341 0 0 Z " fill="#F2F2F2" transform="translate(140,76)"/>
  <path d="M0 0 C4.81826218 0.84530916 6.34029694 1.93125503 9.5625 5.625 C10.33402986 9.94556721 10.08997866 11.81619939 7.6875 15.5 C4.98843031 18.19906969 4.07148995 18.55777491 0.25 19.0625 C-3.4375 18.625 -3.4375 18.625 -6.375 16.0625 C-8.16611311 13.53947024 -8.50218531 12.25629375 -9.0625 9.0625 C-8.04270823 3.45364528 -5.60885472 1.01979177 0 0 Z " fill="#F3F3F3" transform="translate(217.4375,48.375)"/>
  <path d="M0 0 C4.89009914 0.85791213 6.40069889 1.75179363 9.5625 5.625 C10.0432241 8.88002339 9.65868404 11.53260714 8.5625 14.625 C5.97658453 17.65421527 4.47294732 18.47325878 0.5625 19.125 C-3.12953416 18.50966097 -4.77766868 17.20883614 -7.4375 14.625 C-9.00685594 11.48628812 -8.78951103 9.08644178 -8.4375 5.625 C-5.86890902 1.96670376 -4.41498801 0.80272509 0 0 Z " fill="#F3F3F3" transform="translate(163.4375,48.375)"/>
  <path d="M0 0 C2.96975757 2.59853787 3.86883492 4.10058229 4.4375 8 C3.94702329 11.36326885 3.01736344 13.28431844 1 16 C-2.24441291 17.62220646 -5.50540703 17.70159132 -9 17 C-12.29420787 14.11756811 -13.76884408 12.25851556 -14.5625 7.9375 C-13.87020639 4.32218892 -12.54408967 2.61891584 -10 0 C-6.72154211 -1.63922894 -3.40869581 -0.97680018 0 0 Z " fill="#F3F3F3" transform="translate(223,131)"/>
  <path d="M0 0 C4.10198969 1.34246935 5.88827306 2.64878144 8.4375 6.125 C9.1821324 10.09637281 8.81016878 11.56599683 6.5625 14.9375 C3.80804543 17.77296794 3.04921948 18.07968745 -0.9375 18.375 C-4.70525074 18.11515512 -5.9895943 17.79686361 -8.5625 15.125 C-9.78664155 11.45257535 -10.02809007 8.9827463 -9.5625 5.125 C-6.45637371 1.48855946 -4.82394721 0.16926131 0 0 Z " fill="#F3F3F3" transform="translate(164.5625,129.875)"/>
  <path d="M0 0 C2.69990662 1.79993774 4.5418865 3.083773 6 6 C6.43023798 9.87214182 6.31669086 11.52496371 4.125 14.8125 C1.38286658 17.6352844 0.58642602 17.94570129 -3.375 18.3125 C-7 18 -7 18 -9.375 16.125 C-12.06463552 12.60778432 -12.43467763 10.43371186 -12 6 C-8.54235344 0.81353016 -6.24330406 -0.61208863 0 0 Z " fill="#F4F4F4" transform="translate(194,103)"/>
  <path d="M0 0 C2.75329021 1.79562405 4.52627461 3.05254922 6 6 C6.43023798 9.87214182 6.31669086 11.52496371 4.125 14.8125 C1.65678697 17.35330753 0.7363048 17.8995948 -2.75 18.375 C-7.27528174 17.85285211 -9.02043395 16.40521835 -12 13 C-12.81113355 10.14665078 -12.76136134 7.86087293 -12 5 C-8.62505893 0.09099481 -5.84787119 -0.93983644 0 0 Z " fill="#F4F4F4" transform="translate(221,76)"/>
  <path d="M0 0 C2.75329021 1.79562405 4.52627461 3.05254922 6 6 C6.375 8.8125 6.375 8.8125 6 12 C3.5625 14.8125 3.5625 14.8125 1 17 C0.67 17.33 0.34 17.66 0 18 C-4.27424083 18.49318163 -6.33545657 18.4524551 -9.9375 16 C-12.23092162 12.66411401 -12.75815509 10.90015906 -12.48046875 6.9375 C-10.87278432 0.45447986 -5.98096831 -0.96122705 0 0 Z " fill="#F4F4F4" transform="translate(194,49)"/>
  <path d="M0 0 C2.875 1.5625 2.875 1.5625 5 4 C6.14888518 7.94929279 6.43129396 10.02958859 4.75 13.8125 C2.26312911 16.92108861 0.57370431 17.91500677 -3.375 18.5 C-7 18 -7 18 -9.9375 15.4375 C-11.72861311 12.91447024 -12.06468531 11.63129375 -12.625 8.4375 C-11.31842905 1.25135978 -6.9949306 -1.12418528 0 0 Z " fill="#F3F3F3" transform="translate(140,49)"/>
  <path d="M0 0 C2.9375 1.5625 2.9375 1.5625 5 4 C5.91654656 7.42177384 6.32835544 9.81792041 5.375 13.25 C3.45238499 15.69696456 1.88017082 16.78392788 -1 18 C-5.17955847 18 -7.22755042 17.65361118 -10.4375 14.9375 C-12.62113076 10.83227417 -12.58771847 8.62828294 -12 4 C-9.18445767 -0.69257054 -5.07569374 -0.97686963 0 0 Z " fill="#F4F4F4" transform="translate(140,185)"/>
  <path d="M0 0 C4.21918047 0.96689552 6.15291241 2.43368561 9 5.6875 C9.81144575 8.54194748 9.75608333 10.82477226 9 13.6875 C7.00647547 16.67778679 5.59744505 18.26559415 2.0625 19.19921875 C-0.18111914 19.39043629 -1.83193733 19.30382427 -4 18.6875 C-7.25381439 15.84041241 -8.72060448 13.90668047 -9.6875 9.6875 C-8.48240375 4.42889818 -5.25860182 1.20509625 0 0 Z " fill="#F3F3F3" transform="translate(82,129.3125)"/>
  <path d="M0 0 C4.10198969 1.34246935 5.88827306 2.64878144 8.4375 6.125 C9.1821324 10.09637281 8.81016878 11.56599683 6.5625 14.9375 C3.85805063 17.72149199 3.01483296 18.05964155 -0.875 18.5 C-4.5625 18.125 -4.5625 18.125 -7.5 16.125 C-9.77963788 12.80916309 -10.37917462 11.01597289 -10.109375 7.06640625 C-8.6760618 1.9781444 -4.93940286 0.17331238 0 0 Z " fill="#F4F4F4" transform="translate(137.5625,129.875)"/>
  <path d="M0 0 C3 2.125 3 2.125 5 5 C5.61304266 8.67825595 5.26122201 10.46568226 3.625 13.8125 C2 16 2 16 0 17 C-3.05905981 17.41338646 -5.94532102 17.46661171 -9 17 C-11.72522624 14.87299416 -12.70898425 13.41310533 -13.40625 10.02734375 C-13.68078717 6.35540912 -13.30154207 4.37692758 -11 1.5 C-7.16805752 -0.41597124 -4.2001866 -0.97383359 0 0 Z " fill="#F5F5F5" transform="translate(168,185)"/>
  <path d="M0 0 C3.46145669 0.86536417 4.94931405 2.62635769 6.9375 5.484375 C7.55054266 9.16263095 7.19872201 10.95005726 5.5625 14.296875 C3.9375 16.484375 3.9375 16.484375 1.9375 17.484375 C-5.06119622 18.17277135 -5.06119622 18.17277135 -9.0625 15.421875 C-11.59225133 11.70630274 -11.8503128 9.8961267 -11.0625 5.484375 C-8.00965334 1.00050647 -5.26530818 -0.35899829 0 0 Z " fill="#F5F5F5" transform="translate(193.0625,157.515625)"/>
  <path d="M0 0 C2.4375 1.5 2.4375 1.5 4 4 C4.76856455 8.31030018 4.732948 11.7478805 2.5 15.5625 C-1.00551615 17.57817178 -4.11843147 17.868549 -8 17 C-10.99380345 15.00413103 -12.63808488 13.61740829 -13.44140625 10.02734375 C-13.64808593 6.46045243 -13.30903079 4.40174002 -11.125 1.5625 C-7.08746789 -1.40627361 -4.90824906 -1.10012479 0 0 Z " fill="#F5F5F5" transform="translate(141,104)"/>
  <path d="M0 0 C2.91963173 1.98783437 4.61102978 3.4314697 5.48046875 6.9375 C5.75815509 10.90015906 5.23092162 12.66411401 2.9375 16 C-0.77807226 18.52975133 -2.5882483 18.7878128 -7 18 C-10.09242064 15.9603183 -11.67421425 14.48854954 -12.48046875 10.8046875 C-12.72982459 6.72064327 -12.5486366 4.68163941 -9.9375 1.4375 C-6.22793965 -0.37781677 -4.08316143 -0.65622237 0 0 Z " fill="#F5F5F5" transform="translate(86,76)"/>
  <path d="M0 0 C3.5060303 0.86943897 4.94966563 2.56083702 6.9375 5.48046875 C7.7253128 9.89222045 7.46725133 11.70239649 4.9375 15.41796875 C0.78669686 18.27164591 -1.0926078 18.19045335 -6.0625 17.48046875 C-9.40675629 14.90796391 -10.87949852 12.85297982 -11.4375 8.66796875 C-11.0625 5.48046875 -11.0625 5.48046875 -9.0625 2.60546875 C-5.72064571 0.23832196 -4.00209545 -0.28044987 0 0 Z " fill="#F5F5F5" transform="translate(220.0625,157.51953125)"/>
  <path d="M0 0 C3.64146056 0.80345393 5.15231038 2.45282347 7.1953125 5.484375 C8.07535722 9.62058519 7.36954592 11.18087162 5.2578125 14.859375 C2.90433343 17.40785662 1.07412638 17.97311925 -2.3671875 18.171875 C-5.73347932 17.9250136 -6.6463017 17.61185625 -9.3671875 15.421875 C-11.16947649 11.73893663 -11.38426518 9.54141875 -10.8046875 5.484375 C-8.28479822 0.33503603 -5.38467311 -0.31988157 0 0 Z " fill="#F5F5F5" transform="translate(165.8046875,157.515625)"/>
  <path d="M0 0 C3.39082252 2.11926407 3.88319436 3.59848062 5 7.4375 C5 11 5 11 3.1875 13.875 C0.1960987 16.7809327 -0.60218755 16.96150202 -4.875 17.375 C-8.15225968 17.31541346 -8.81687595 17.14649924 -11.5 15 C-13.57342659 10.85314682 -13.58651804 8.61882953 -13 4 C-10.08830413 -1.0638189 -5.28354967 -0.94210353 0 0 Z " fill="#F5F5F5" transform="translate(141,158)"/>
  <path d="M0 0 C4.63235294 2.26470588 4.63235294 2.26470588 6 5 C6.4730416 9.80925625 6.66839974 11.94349719 4.0625 16.0625 C0.30788773 18.43786695 -1.6945427 18.41582829 -5.97265625 17.6328125 C-8 17 -8 17 -10.0625 15.4375 C-11.42222726 11.90220913 -11.77322201 8.68374639 -11 5 C-7.82657109 0.51986507 -5.46202272 -0.91033712 0 0 Z " fill="#F5F5F5" transform="translate(85,103)"/>
  <path d="M0 0 C4.63235294 2.26470588 4.63235294 2.26470588 6 5 C6.68571429 11.97142857 6.68571429 11.97142857 4 16 C-0.17528818 18.78352545 -2.04621883 18.78631447 -7 18 C-9.63683762 15.8905299 -10.7081633 14.37858099 -11.41015625 11.0625 C-11.70661131 7.04895461 -11.25523966 5.36033834 -8.875 2 C-5.47539234 -0.36494446 -4.05412149 -0.67568691 0 0 Z " fill="#F6F6F6" transform="translate(112,130)"/>
  <path d="M0 0 C2.92539902 1.99176104 4.58729794 3.44924075 5.515625 6.9375 C5.70247194 9.17966331 5.61585026 10.83360475 5 13 C2.12277073 16.28826203 0.22835983 17.74931432 -4.0625 18.625 C-8.16102524 17.75297335 -9.58610696 16.407849 -12 13 C-12.70886026 10.16455896 -12.7033287 7.83618728 -12 5 C-8.64524049 0.12034981 -5.82662873 -1.04046942 0 0 Z " fill="#F6F6F6" transform="translate(86,49)"/>
  <path d="M0 0 C4.29085983 0.87568568 6.18527073 2.33673797 9.0625 5.625 C10.1751865 9.80600384 9.4724279 12.80514421 7.5625 16.625 C4.70116724 18.91406621 2.69682597 19.36164371 -0.96484375 19.1015625 C-4.53833837 18.23826281 -5.93750663 16.62499006 -7.9375 13.625 C-8.63552194 10.7871403 -8.64659588 8.46138354 -7.9375 5.625 C-5.52360696 2.217151 -4.09852524 0.87202665 0 0 Z " fill="#F6F6F6" transform="translate(108.9375,102.375)"/>
  <path d="M0 0 C2.93052231 1.99524923 4.64521503 3.42836485 5.4453125 6.97265625 C5.64529931 10.53908774 5.30896766 12.59834205 3.125 15.4375 C-0.40724087 18.03473593 -2.59636677 18.5180745 -7 18 C-9.85801731 16.01181405 -11.61901083 14.52395669 -12.484375 11.0625 C-12.7545711 7.09962386 -12.23136937 5.33653726 -9.9375 2 C-6.22192774 -0.52975133 -4.4117517 -0.7878128 0 0 Z " fill="#F6F6F6" transform="translate(113,49)"/>
  <path d="M0 0 C3 1.5 3 1.5 5 4 C5.78631447 8.95378117 5.78352545 10.82471182 3 15 C-0.30984986 17.20656657 -2.14807289 17.81400735 -6.05859375 17.546875 C-9.81838767 16.48777812 -11.15396038 14.27523158 -13 11 C-13.06817573 7.04580795 -12.5665223 4.88377478 -10.4375 1.5625 C-6.99897127 -0.64168509 -3.90845692 -0.74299379 0 0 Z " fill="#F6F6F6" transform="translate(86,185)"/>
  <path d="M0 0 C2.5625 1.4375 2.5625 1.4375 4 4 C4.59785451 7.13298755 4.64850375 9.87226065 4 13 C1.87299416 15.72522624 0.41310533 16.70898425 -2.97265625 17.40625 C-6.64459088 17.68078717 -8.62307242 17.30154207 -11.5 15 C-13.57342659 10.85314682 -13.58651804 8.61882953 -13 4 C-10.08062842 -1.07716797 -5.2912531 -0.92232852 0 0 Z " fill="#F9F9F9" transform="translate(114,158)"/>
  <path d="M0 0 C3 1.5 3 1.5 5 4 C5.65951493 8.61660448 5.56394783 10.82306541 3.5625 15 C0.29795144 17.54794034 -1.81153884 17.67376597 -5.87109375 17.40625 C-8 17 -8 17 -10.5625 15.5625 C-12.71240656 11.73005787 -12.75551032 8.28909505 -12 4 C-9.23080411 -0.73070965 -5.07391396 -0.96454602 0 0 Z " fill="#F9F9F9" transform="translate(86,158)"/>
  <path d="M0 0 C3 1.5 3 1.5 5 4 C5.65951493 8.61660448 5.56394783 10.82306541 3.5625 15 C0.306419 17.54133151 -1.81465693 17.73050747 -5.87109375 17.4765625 C-8 17 -8 17 -10.5625 15 C-12.54877707 10.85472611 -12.58199542 8.58321396 -12 4 C-9.18063993 -0.69893346 -5.07930638 -0.96557111 0 0 Z " fill="#F9F9F9" transform="translate(113,185)"/>
  <path d="M0 0 C1.32 0 2.64 0 4 0 C4 4.29 4 8.58 4 13 C4.66 12.34 5.32 11.68 6 11 C6.45246094 10.55269531 6.90492187 10.10539063 7.37109375 9.64453125 C8.59206273 8.41185034 9.78874221 7.15503062 10.97265625 5.88671875 C11.66230469 5.16097656 12.35195312 4.43523437 13.0625 3.6875 C13.71347656 2.99011719 14.36445312 2.29273438 15.03515625 1.57421875 C17 0 17 0 21 0 C19.59155282 3.21524305 17.89655214 5.32183868 15.375 7.75 C14.74335937 8.36359375 14.11171875 8.9771875 13.4609375 9.609375 C12.73777344 10.29773438 12.73777344 10.29773438 12 11 C13.49076434 14.2826932 15.38620321 16.93077441 17.625 19.75 C18.25664063 20.54921875 18.88828125 21.3484375 19.5390625 22.171875 C20.02117187 22.77515625 20.50328125 23.3784375 21 24 C19.68 24.33 18.36 24.66 17 25 C16.44570312 24.36191406 15.89140625 23.72382813 15.3203125 23.06640625 C14.59585938 22.24011719 13.87140625 21.41382813 13.125 20.5625 C12.04605469 19.32693359 12.04605469 19.32693359 10.9453125 18.06640625 C9.16761255 15.94017845 9.16761255 15.94017845 7 15 C6.67 15.99 6.34 16.98 6 18 C5.34 18 4.68 18 4 18 C4 20.64 4 23.28 4 26 C2.68 26 1.36 26 0 26 C0 17.42 0 8.84 0 0 Z " fill="#DFDFDF" transform="translate(74,212)"/>
  <path d="M0 0 C2 2 2 2 2 5 C-1.96 5 -5.92 5 -10 5 C-9.67 6.65 -9.34 8.3 -9 10 C-6.54528377 11.40697984 -6.54528377 11.40697984 -3.5625 12.1875 C1.84398496 13.84398496 1.84398496 13.84398496 4 16 C3.9375 19.4375 3.9375 19.4375 3 23 C0.05201247 25.76932162 -1.90141394 25.99061085 -5.9375 26.375 C-9.84000497 26.24170761 -12.63993839 25.01603697 -16 23 C-15.505 21.515 -15.505 21.515 -15 20 C-14.319375 20.33 -13.63875 20.66 -12.9375 21 C-9.46150705 22.18331675 -6.65036451 22.20662441 -3 22 C-2.34 21.67 -1.68 21.34 -1 21 C-1 19.68 -1 18.36 -1 17 C-1.67546875 16.82984375 -2.3509375 16.6596875 -3.046875 16.484375 C-12.54630552 13.90360486 -12.54630552 13.90360486 -15 10 C-15.5625 7 -15.5625 7 -15 4 C-11.11759478 -0.91771327 -5.82981966 -0.88737078 0 0 Z " fill="#E2E2E2" transform="translate(225,212)"/>
  <path d="M0 0 C0.99 0 1.98 0 3 0 C3.03738281 1.16917969 3.07476562 2.33835938 3.11328125 3.54296875 C3.1789628 5.09117675 3.24540939 6.63935242 3.3125 8.1875 C3.33505859 8.95642578 3.35761719 9.72535156 3.38085938 10.51757812 C3.59554983 15.0651124 3.97337137 18.36229433 7 22 C11.08600528 22.59587577 12.52648925 22.31567384 16 20 C16.50702517 17.87893205 16.50702517 17.87893205 16.51171875 15.4296875 C16.54716797 14.53378906 16.58261719 13.63789063 16.61914062 12.71484375 C16.64169922 11.77769531 16.66425781 10.84054688 16.6875 9.875 C16.72166016 8.93011719 16.75582031 7.98523438 16.79101562 7.01171875 C16.87364112 4.67459747 16.94273988 2.33785809 17 0 C18.32 0 19.64 0 21 0 C21.14584064 3.22868746 21.23424106 6.45652365 21.3125 9.6875 C21.35439453 10.59951172 21.39628906 11.51152344 21.43945312 12.45117188 C21.56351709 19.27469007 21.56351709 19.27469007 18.60546875 23.08203125 C14.48760319 26.11332359 12.14402919 26.34874774 7 26 C3.4613006 24.34860695 2.18929847 23.28394771 0 20 C-0.22705078 17.82348633 -0.22705078 17.82348633 -0.1953125 15.33203125 C-0.18564453 13.99301758 -0.18564453 13.99301758 -0.17578125 12.62695312 C-0.15902344 11.69818359 -0.14226562 10.76941406 -0.125 9.8125 C-0.11597656 8.87212891 -0.10695312 7.93175781 -0.09765625 6.96289062 C-0.07409056 4.64167032 -0.04119116 2.32096356 0 0 Z " fill="#E7E7E7" transform="translate(184,212)"/>
  <path d="M0 0 C1.32 0 2.64 0 4 0 C4 7.59 4 15.18 4 23 C8.62 23 13.24 23 18 23 C18 23.99 18 24.98 18 26 C12.06 26 6.12 26 0 26 C0 17.42 0 8.84 0 0 Z " fill="#E0E0E0" transform="translate(123,212)"/>
  <path d="M0 0 C1.32 0 2.64 0 4 0 C4 8.58 4 17.16 4 26 C2.68 26 1.36 26 0 26 C0 17.42 0 8.84 0 0 Z " fill="#DCDCDC" transform="translate(144,212)"/>
  <path d="M0 0 C0.66 0 1.32 0 2 0 C3.78770907 2.1335282 5.46872824 4.26844058 7.125 6.5 C7.59292969 7.12003906 8.06085938 7.74007812 8.54296875 8.37890625 C9.70096609 9.91502517 10.85121357 11.45698059 12 13 C10.68 13.33 9.36 13.66 8 14 C6.66072279 12.54712339 5.32873153 11.08752741 4 9.625 C3.2575 8.81289062 2.515 8.00078125 1.75 7.1640625 C0 5 0 5 0 3 C-0.66 2.67 -1.32 2.34 -2 2 C-1.34 1.34 -0.68 0.68 0 0 Z " fill="#EBEBEB" transform="translate(83,223)"/>
  <path d="M0 0 C3 1 3 1 4.6875 3.875 C6 7 6 7 6 10 C3.03 10 0.06 10 -3 10 C-2.39009109 6.44219804 -1.4216319 3.3171411 0 0 Z " fill="#1E1E1E" transform="translate(106,218)"/>
  <path d="M0 0 C1.62463842 -0.05395478 3.24978541 -0.09277195 4.875 -0.125 C5.77992188 -0.14820313 6.68484375 -0.17140625 7.6171875 -0.1953125 C10 0 10 0 12 2 C12 2.99 12 3.98 12 5 C8.04 4.67 4.08 4.34 0 4 C0 2.68 0 1.36 0 0 Z " fill="#D5D5D5" transform="translate(215,212)"/>
  <path d="M0 0 C0.680625 0.309375 1.36125 0.61875 2.0625 0.9375 C5.36965912 2.13370649 8.51545878 2.59005397 12 3 C11.67 3.66 11.34 4.32 11 5 C9.5629191 5.05422947 8.12524538 5.09289723 6.6875 5.125 C5.88699219 5.14820313 5.08648437 5.17140625 4.26171875 5.1953125 C2 5 2 5 -1 3 C-0.67 2.01 -0.34 1.02 0 0 Z " fill="#E9E9E9" transform="translate(210,232)"/>
  <path d="M0 0 C-0.34069235 3.15140423 -0.58076841 4.60781561 -2.9375 6.8125 C-5 8 -5 8 -7 8 C-7 4 -7 4 -5.1875 1.75 C-3 0 -3 0 0 0 Z " fill="#E4E4E4" transform="translate(177,229)"/>
  <path d="M0 0 C0.99 0.33 1.98 0.66 3 1 C3 2.32 3 3.64 3 5 C6.3 4.67 9.6 4.34 13 4 C13 4.66 13 5.32 13 6 C9.37 6 5.74 6 2 6 C1.67 5.34 1.34 4.68 1 4 C0.34 4 -0.32 4 -1 4 C-0.67 2.68 -0.34 1.36 0 0 Z " fill="#CDCDCD" transform="translate(100,223)"/>
</svg>