<svg xmlns="http://www.w3.org/2000/svg" viewBox="0 0 5000 5000" xml:space="preserve"><path d="M3300 5004H4V4h5000v5000H3300m231.572-2153.042c12.016 1.445 23.787-.059 35.714-1.864 75.11-11.367 123.891-85.426 114.168-155.391-8.721-62.752-68.78-136.519-167.859-115.961-53.921 11.188-89.632 46.451-103.436 99.87-13.535 52.376.462 98.736 39.64 136.646 21.792 21.086 48.437 32.264 81.773 36.7m-19.766-1101.887c-3.175.994-6.34 2.02-9.526 2.979-63.512 19.12-105.366 85.766-95.385 152.115 11.64 77.393 88.563 136.566 174.48 113.238 68.583-18.621 110.479-87.8 99.564-152.794-9.019-53.705-38.669-90.752-89.338-110.626-24.826-9.737-50.55-10.342-79.795-4.912m-920.035 196.9c23.834 50.27 81.719 83.025 141.86 75.404 71.554-9.068 136.257-78.403 116.976-166.88-11.907-54.638-46.8-90.935-101.334-104.496-53.434-13.288-100.983.86-137.375 42.514-39.183 44.848-45.12 96.105-20.127 153.458m-793.446 1074.237c-40.643 36.095-57.048 80.658-46.884 134.454 12.344 65.33 76.762 125.371 165.111 107.575 67.652-13.628 114.068-78.33 108.468-146.96-5.191-63.621-58.57-125.693-135.494-126.968-33.272-.551-62.808 9.708-91.2 31.899m-247.246 221.196c47.304-35.678 67.535-82.143 57.414-141.356-8.288-48.486-51.226-105.728-124.647-111.389-93.828-7.235-171.886 78.294-143.648 178.25 16.518 58.47 69.444 94.776 121.02 97.964 31.655 1.956 60.755-4.7 89.86-23.47m-37.141-1225.028c4.987-1.828 10.109-3.357 14.942-5.529 65.82-29.582 89.717-98.878 80.525-150.252-13.986-78.165-92.572-132.94-175.306-109.597-59.242 16.714-101.577 74.737-99.592 134 1.724 51.466 23.647 90.73 66.904 117.618 33.928 21.088 70.88 25.113 112.527 13.76m1746.3 1477.988c-2.38-5.48-4.452-11.12-7.188-16.418-27.672-53.566-85.416-86.167-152.572-72.194-74.566 15.516-124.022 88.832-105.126 168.246 13.524 56.837 60.914 98.996 119.468 105.057 58.661 6.072 111.404-23.467 137.556-73.338 18.299-34.895 20.574-71.004 7.863-111.353m-671.295-838.976c-8.077 19.244-12.347 39.085-11.894 60.173 1.975 91.925 91.255 158.263 182.253 128.725 58.895-19.118 101.236-79.695 93.814-147.797-7.947-72.927-81.024-143.136-177.065-116.466-39.355 10.93-67.36 36.374-87.108 75.365m-1194.19 172.05c36.694 24.052 76.267 30.44 118.267 17.813 75.524-22.707 107.31-99.01 96.275-157.112-12.064-63.52-73.152-129.696-166.806-110.63-71.013 14.456-124.767 85.918-103.375 171.015 8.119 32.297 26.497 57.716 55.638 78.913m598.018 803.262c29.36-35.099 38.563-75.419 29.244-119.674-16.384-77.807-98.338-129.093-180.275-100.496-52.428 18.297-83.611 56.36-91.711 110.81-7.747 52.079 10.42 96.17 51.635 129.004 58.679 46.747 142.832 36.323 191.107-19.644m212.102-603.858c-2.218 2.485-4.449 4.959-6.653 7.456-26.48 30.005-37.506 64.721-34.814 104.834 4.786 71.323 74.07 144.107 169.585 122.423 77.61-17.618 122.723-95.268 101.81-172.045-18.571-68.175-87.712-111.578-157.065-99.156-27.045 4.844-50.332 16.616-72.863 36.488m462.501-30.064c-3.074 1.276-6.184 2.475-9.218 3.842-54.965 24.755-90.494 85.392-78.977 151.006 11.753 66.963 78.358 129.98 168.61 110.007 61.599-13.632 114.358-75.1 105.08-150.913-3.688-30.134-15.04-56.683-36.132-78.306-41.07-42.103-90.22-53.786-149.363-35.636m143.947 644.582c32.85-32.559 46.605-71.666 41.425-117.769-8.053-71.68-77.472-137.246-168.423-117.376-72.72 15.887-118.276 87.51-105.074 160.055 9.858 54.172 57.068 109.996 129.4 113.322 38.375 1.764 72.02-10.496 102.672-38.232m-516.564 38.307c3.993.001 7.992.137 11.98-.017 66.764-2.581 124.919-52.23 132.316-123.639 9.22-89.015-65.275-167.618-162.268-151.078-55.139 9.403-92.74 43.366-108.204 97.237-15.616 54.407-1.542 102.698 39.829 141.917 23.037 21.839 51.268 32.744 86.347 35.58m-3.433-828.545c11.236-.719 22.59-.642 33.688-2.285 76.872-11.382 135.579-92.684 107.955-178.862-23.324-72.764-101.581-115.464-179.718-86.925-51.186 18.695-81.974 56.8-88.935 110.622-7.246 56.024 13.346 101.7 60.286 134.509 19.008 13.286 40.467 19.733 66.724 22.941m1131.826 343.315c2.43 3.973 4.654 8.091 7.324 11.896 32.403 46.177 86.718 68.444 145.779 55.328 67.976-15.097 121.548-85.11 102.592-166.707-13.55-58.33-61.357-100.809-122.938-106.239-61.49-5.422-119.01 30.63-140.85 87.329-15.24 39.566-12.41 78.177 8.093 118.393m126.338 485.242c4.642-.36 9.325-.44 13.92-1.12 81.804-12.142 128.553-88.156 117.732-158.297-9.742-63.15-70.005-132.163-163.495-115.048-81.251 14.874-128.707 96.455-106.93 173.528 17.361 61.442 74.387 102.607 138.773 100.937m-1666.821-1104.89c-56.103-1.752-128.578 43.338-133.847 127.869-6.406 102.774 85.864 161.346 163.526 146.542 63.355-12.077 129.238-76.63 109.64-167.375-14.6-67.597-77.67-110.503-139.32-107.036m-490.75-389.133c-38.556 29.408-57.978 67.715-57.351 116.849 1.076 84.339 85.221 158.606 183.28 126.69 63.028-20.514 107.932-89.81 89.383-164.315-15.206-61.076-67.887-101.64-126.083-104.789-31.74-1.717-60.517 6.409-89.228 25.565M3090.676 3259.99c21.492 6.398 43.524 7.32 65.234 3.07 70.26-13.756 114.576-75.143 112.387-140.142-2.292-68.057-52.439-126.23-124.254-134.046-55.813-6.075-109.434 23.09-136.427 72.274-25.888 47.173-20.32 111.488 14.853 153.722 17.566 21.092 39.31 35.551 68.207 45.122M1498.59 3677.073c54.79-8.54 110.951-57.488 112.667-131.616 1.976-85.366-65.19-141.53-135.837-142.848-97.64-1.822-171.547 96.926-128.839 195.582 24.28 56.087 85.394 90.377 152.009 78.882m1765.464-998.353c-1.178-3.805-2.269-7.64-3.546-11.412-19.622-57.92-78.722-106.381-160.598-89.916-67.271 13.528-119.2 77.435-106.898 156.959 13.368 86.421 99.087 134.903 177.439 110.915 67.507-20.668 111.414-91.484 93.603-166.546m-1347.323-930.261c-16.468-2.15-32.704-3.845-49.572-1.542-62.66 8.554-116.956 62.505-118.722 132.747-2.215 88.045 74.574 154.914 159.629 140.967 53.99-8.854 91.39-39.524 109.257-90.692 17.829-51.054 7.85-98.32-28.24-139.336-18.609-21.148-42.196-34.106-72.352-42.144m744.46-151.267c2.455 1.008 4.868 2.142 7.373 3.006 100.77 34.75 195.604-47.205 184.578-145.95-8.365-74.917-81.109-139.868-170.647-118.861-68.083 15.973-117.56 84.836-103.024 159.323 9.177 47.027 35.665 80.723 81.72 102.482m-716.068 575.122c-3.075-1.258-6.09-2.695-9.234-3.749-53.869-18.058-103.03-9.555-144.258 29.82-41.87 39.988-53.479 89.43-35.603 144.473 19.377 59.666 76.8 96.087 134.296 93.59 53.031-2.302 92.994-26.117 118.25-72.376 24.952-45.702 22.545-92.056-2.899-137.044-13.458-23.797-33.526-41.05-60.552-54.714m289.284 247.6c29.883 16.23 61.862 20.952 94.735 13.83 54.104-11.721 90.45-45.088 105.298-98.05 14.6-52.079 1.398-98.617-37.389-137.25-40.268-40.107-107.154-51.877-162.471-21.68-48.338 26.389-83.708 83.638-68.137 152.596 8.804 38.988 31.164 68.523 67.964 90.554m1336.705-1086.271c-9.273-.663-18.537-1.735-27.82-1.925-85.794-1.76-158.464 82.993-132.5 175.752 19.996 71.436 93.79 112.563 162.921 97.652 80.812-17.43 136.02-108.794 95.292-194.677-19.124-40.327-51.115-65.447-97.893-76.802M2839.4 2360.954c12.161-25.145 16.588-51.454 13.496-79.346-8.254-74.438-78.644-134.182-161.751-119.636-77.645 13.59-124.775 88.215-112.124 160.43 11.07 63.184 73.531 128.96 164.361 111.412 42.33-8.177 73.438-32.837 96.018-72.86m324.393-342.457c2.553-.75 5.124-1.447 7.657-2.258 69.573-22.281 110.607-93.747 92.693-165.868-18.458-74.312-94.74-120.67-171.561-99.765-60.868 16.564-103.405 75.348-101.218 136.857 2.093 58.846 40.13 111.105 96.338 128.612 24.043 7.488 48.312 8.392 76.091 2.422m471.858 175.754c-3.119-2.494-6.16-5.094-9.369-7.468-46.8-34.632-110.603-36.268-159.143-3.796-45.259 30.276-73.442 86.392-57.58 148.312 27.171 106.062 150.771 136.685 225.212 71.565 36.478-31.91 52.17-72.75 46.465-121.437-3.972-33.888-18.938-61.947-45.585-87.176m-1259.133-841.09c-23.824-14.59-49.468-21.517-77.638-21.717-74.67-.528-151.5 69.02-133.587 164.292 15.424 82.03 95.31 129.08 173.342 107.456 76.235-21.128 119.674-100.994 93.693-178.108-9.876-29.314-27.949-52.655-55.81-71.923m-867.474-17.105c-33.488-8.514-66.038-5.81-97.164 9.224-44.302 21.4-86.083 71.63-75.944 145.273 8.577 62.302 58.667 106.179 109.668 114.931 55.47 9.52 101.906-6.879 136.357-50.949 34.557-44.204 39.027-93.703 15.466-144.555-17.085-36.875-46.37-60.905-88.383-73.924m250.777 78.208c-1.554 4.38-3.303 8.703-4.632 13.151-15.886 53.153-4.87 100.53 33.862 139.741 39.545 40.034 87.798 50.191 141.478 33.951 54.863-16.597 100.342-74.753 94.305-143.511-8.55-97.379-114.343-158.024-204.722-109.105-26.56 14.376-45.934 35.872-60.29 65.773m620.134 355.573c-29.415-19.478-61.38-27.33-96.674-22.99-95.149 11.699-152.825 118.05-101.377 207.47 26.248 45.62 81.156 75.464 140.92 66.498 72.083-10.815 127.937-80.694 115.205-158.103-6.246-37.97-24.857-68.29-58.074-92.875m696.477-428.154c-8.138 4.491-16.799 8.246-24.33 13.593-47.33 33.606-68.202 80.175-58.791 136.867 17.848 107.517 140.648 150.304 221.675 86.64 42.085-33.065 60.012-77.787 51.282-130.7-8.966-54.346-40.769-91.458-93.092-109.674-31.315-10.902-62.794-9.114-96.744 3.274m190.301 934.886c-.762-3.237-1.572-6.463-2.28-9.712-15.853-72.72-90.439-121.726-167.739-103.148-65.8 15.813-121.096 83.995-101.394 167.246 13.101 55.365 60.032 97.863 115.273 104.63 59.423 7.28 114.512-21.114 141.662-72.51 13.834-26.188 18.356-53.832 14.478-86.506z"/><path fill="#FDFDFD" d="M3529.822 2850.748c-31.586-4.226-58.231-15.404-80.022-36.49-39.179-37.91-53.176-84.27-39.641-136.647 13.804-53.418 49.515-88.681 103.436-99.87 99.08-20.557 159.138 53.21 167.859 115.962 9.723 69.965-39.059 144.024-114.168 155.391-11.927 1.805-23.698 3.309-37.464 1.654zM3513.429 1748.75c27.622-5.109 53.346-4.504 78.172 5.233 50.67 19.874 80.32 56.92 89.338 110.626 10.915 64.994-30.981 134.173-99.564 152.794-85.917 23.328-162.84-35.845-174.48-113.238-9.98-66.35 31.873-132.995 95.385-152.115 3.186-.96 6.351-1.985 11.149-3.3zM2591.107 1944.614c-24.329-55.996-18.392-107.253 20.79-152.101 36.393-41.654 83.942-55.802 137.376-42.514 54.534 13.56 89.427 49.858 101.334 104.495 19.28 88.478-45.422 157.813-116.977 166.88-60.14 7.622-118.025-25.134-142.523-76.76zM1799.464 3019.337c27.254-21.32 56.79-31.58 90.062-31.028 76.924 1.275 130.303 63.347 135.494 126.968 5.6 68.63-40.816 133.332-108.468 146.96-88.35 17.796-152.767-42.246-165.11-107.575-10.165-53.796 6.24-98.359 48.022-135.325zM1549.885 3242.255c-27.911 17.919-57.01 24.574-88.666 22.618-51.576-3.188-104.502-39.495-121.02-97.964-28.238-99.956 49.82-185.485 143.648-178.25 73.421 5.661 116.359 62.903 124.647 111.39 10.12 59.212-10.11 105.677-58.61 142.206zM1512.374 2016.78c-40.083 10.948-77.035 6.923-110.963-14.165-43.257-26.887-65.18-66.152-66.904-117.617-1.985-59.264 40.35-117.287 99.592-134.001 82.734-23.343 161.32 31.432 175.306 109.597 9.192 51.374-14.705 120.67-80.525 150.252-4.833 2.172-9.955 3.7-16.506 5.935zM3260.683 3495.893c12.267 38.82 9.992 74.928-8.307 109.823-26.152 49.87-78.895 79.41-137.556 73.338-58.554-6.06-105.944-48.22-119.468-105.057-18.896-79.414 30.56-152.73 105.126-168.246 67.156-13.973 124.9 18.628 152.572 72.194 2.736 5.297 4.808 10.937 7.633 17.948zM2589.693 2654.069c19-37.673 47.004-63.118 86.36-74.047 96.04-26.67 169.117 43.539 177.064 116.466 7.422 68.102-34.919 128.679-93.814 147.797-90.998 29.538-180.278-36.8-182.253-128.725-.453-21.088 3.817-40.929 12.643-61.491zM1393.578 2826.594c-27.966-20.355-46.344-45.774-54.463-78.071-21.392-85.097 32.362-156.559 103.375-171.015 93.654-19.066 154.742 47.11 166.806 110.63 11.034 58.101-20.75 134.405-96.275 157.112-42 12.627-81.573 6.239-119.443-18.656zM1991.83 3631.772c-47.334 54.893-131.487 65.317-190.166 18.57-41.215-32.834-59.382-76.925-51.635-129.003 8.1-54.45 39.283-92.514 91.711-110.811 81.937-28.597 163.891 22.689 180.275 100.496 9.32 44.255.117 84.575-30.184 120.748zM2205.896 3025.86c21.508-18.892 44.795-30.664 71.84-35.508 69.353-12.422 138.494 30.981 157.064 99.156 20.914 76.777-24.2 154.427-101.809 172.045-95.515 21.684-164.8-51.1-169.585-122.423-2.692-40.113 8.335-74.83 34.814-104.834a371.02 371.02 0 0 1 7.676-8.437zM2668.88 2996.32c57.636-17.694 106.788-6.011 147.857 36.092 21.091 21.623 32.444 48.172 36.132 78.306 9.278 75.812-43.481 137.281-105.08 150.913-90.252 19.972-156.857-43.044-168.61-110.007-11.517-65.614 24.012-126.251 78.977-151.006 3.034-1.367 6.144-2.566 10.723-4.298zM2810.304 3642.344c-29.636 26.75-63.28 39.01-101.655 37.246-72.332-3.326-119.542-59.15-129.4-113.322-13.202-72.544 32.353-144.168 105.074-160.055 90.95-19.87 160.37 45.696 168.423 117.376 5.18 46.103-8.576 85.21-42.442 118.755zM2292.95 3679.647c-33.272-2.818-61.503-13.723-84.54-35.562-41.371-39.219-55.445-87.51-39.829-141.917 15.463-53.871 53.065-87.834 108.204-97.237 96.993-16.54 171.489 62.063 162.268 151.078-7.397 71.409-65.552 121.058-132.316 123.64-3.988.153-7.987.017-13.786-.002zM2289.557 2850.978c-24.49-3.066-45.95-9.513-64.957-22.8-46.94-32.808-67.532-78.484-60.286-134.508 6.96-53.823 37.749-91.927 88.935-110.622 78.137-28.539 156.394 14.161 179.718 86.925 27.624 86.178-31.083 167.48-107.955 178.862-11.099 1.643-22.452 1.566-35.455 2.143zM3422.369 3193.163c-19.722-38.944-22.552-77.555-7.312-117.121 21.84-56.699 79.36-92.751 140.85-87.329 61.58 5.43 109.388 47.91 122.938 106.239 18.956 81.597-34.616 151.61-102.592 166.707-59.061 13.116-113.376-9.15-145.779-55.328-2.67-3.805-4.893-7.923-8.105-13.168zM3547.656 3679.679c-62.554 1.668-119.58-39.497-136.94-100.94-21.778-77.072 25.678-158.653 106.929-173.527 93.49-17.115 153.753 51.898 163.495 115.048 10.821 70.141-35.928 146.155-117.733 158.296-4.594.682-9.277.761-15.75 1.123zM1884.378 2574.784c59.939-3.464 123.008 39.442 137.608 107.04 19.598 90.743-46.285 155.297-109.64 167.374-77.662 14.804-169.932-43.768-163.526-146.542 5.269-84.531 77.744-129.62 135.558-127.872zM1393.109 2184.82c27.519-18.322 56.295-26.448 88.036-24.73 58.196 3.148 110.877 43.712 126.083 104.788 18.55 74.505-26.355 143.8-89.384 164.315-98.058 31.916-182.203-42.351-183.28-126.69-.626-49.134 18.796-87.441 58.545-117.682zM3089.117 3259.597c-27.338-9.178-49.082-23.637-66.648-44.73-35.173-42.233-40.741-106.548-14.853-153.72 26.993-49.184 80.614-78.35 136.427-72.275 71.815 7.816 121.962 65.99 124.254 134.046 2.189 64.999-42.128 126.386-112.387 140.142-21.71 4.25-43.742 3.328-66.793-3.463zM1496.902 3677.461c-64.926 11.107-126.04-23.183-150.32-79.27-42.708-98.656 31.2-197.404 128.839-195.582 70.647 1.318 137.813 57.482 135.837 142.848-1.716 74.128-57.877 123.076-114.356 132.004zM3264.36 2680.376c17.506 73.406-26.4 144.222-93.908 164.89-78.352 23.988-164.07-24.494-177.44-110.915-12.3-79.524 39.628-143.431 106.899-156.96 81.876-16.464 140.976 31.996 160.598 89.917 1.277 3.771 2.368 7.607 3.851 13.068zM1918.35 1748.805c28.538 7.692 52.125 20.65 70.733 41.798 36.09 41.015 46.07 88.282 28.241 139.336-17.868 51.168-55.267 81.838-109.257 90.692-85.055 13.947-161.844-52.922-159.63-140.967 1.767-70.242 56.064-124.193 118.723-132.747 16.868-2.303 33.104-.608 51.19 1.888zM2659.765 1596.621c-44.628-21.188-71.116-54.884-80.293-101.91-14.536-74.488 34.94-143.351 103.024-159.324 89.538-21.007 162.282 43.944 170.647 118.861 11.026 98.745-83.809 180.7-184.578 145.95-2.505-.864-4.918-1.998-8.8-3.577zM1946.495 2172.95c25.655 13.029 45.723 30.281 59.181 54.078 25.444 44.988 27.851 91.342 2.9 137.044-25.257 46.26-65.22 70.074-118.251 72.377-57.496 2.496-114.919-33.925-134.296-93.59-17.876-55.044-6.267-104.486 35.603-144.473 41.229-39.376 90.39-47.88 144.258-29.82 3.143 1.053 6.159 2.49 10.605 4.384zM2233.132 2419.175c-35.524-21.292-57.884-50.827-66.688-89.815-15.571-68.958 19.799-126.207 68.137-152.595 55.317-30.198 122.203-18.428 162.471 21.68 38.787 38.632 51.989 85.17 37.39 137.249-14.848 52.962-51.195 86.329-105.3 98.05-32.872 7.122-64.851 2.4-96.01-14.569zM3572.753 1334.158c45.138 10.84 77.129 35.96 96.253 76.287 40.728 85.883-14.48 177.247-95.292 194.677-69.131 14.91-142.925-26.216-162.92-97.652-25.965-92.759 46.705-177.513 132.5-175.752 9.282.19 18.546 1.262 29.46 2.44zM2838.656 2362.244c-21.836 38.733-52.944 63.393-95.274 71.57-90.83 17.548-153.29-48.228-164.36-111.412-12.652-72.215 34.478-146.84 112.123-160.43 83.107-14.546 153.497 45.198 161.75 119.636 3.093 27.892-1.334 54.2-14.239 80.636zM3162.188 2018.88c-26.174 5.587-50.443 4.683-74.486-2.805-56.208-17.507-94.245-69.766-96.338-128.612-2.187-61.51 40.35-120.293 101.218-136.857 76.821-20.905 153.103 25.453 171.561 99.765 17.914 72.12-23.12 143.587-92.693 165.868-2.533.81-5.104 1.508-9.262 2.64z"/><path fill="#FCFCFC" d="M3636.692 2195.233c25.606 24.247 40.572 52.306 44.544 86.194 5.705 48.687-9.987 89.527-46.465 121.437-74.44 65.12-198.041 34.497-225.212-71.565-15.862-61.92 12.321-118.036 57.58-148.312 48.54-32.472 112.343-30.836 159.143 3.796 3.209 2.374 6.25 4.974 10.41 8.45z"/><path fill="#FDFDFD" d="M2377.696 1354.021c26.683 18.408 44.756 41.75 54.632 71.063 25.981 77.114-17.458 156.98-93.693 178.108-78.032 21.625-157.918-25.427-173.342-107.456-17.913-95.272 58.918-164.82 133.587-164.292 28.17.2 53.814 7.127 78.816 22.577zM1510.647 1336.428c40.41 12.647 69.695 36.677 86.78 73.552 23.561 50.852 19.09 100.35-15.466 144.555-34.451 44.07-80.888 60.469-136.357 50.95-51.001-8.753-101.09-52.63-109.668-114.932-10.14-73.644 31.642-123.874 75.944-145.273 31.126-15.034 63.676-17.738 98.767-8.852zM1760.372 1412.848c13.806-28.485 33.18-49.981 59.74-64.357 90.379-48.919 196.172 11.726 204.722 109.105 6.037 68.758-39.442 126.914-94.305 143.511-53.68 16.24-101.933 6.083-141.478-33.95-38.732-39.211-49.748-86.589-33.862-139.742 1.33-4.448 3.078-8.77 5.183-14.567zM2381.097 1770.723c32.076 23.698 50.687 54.018 56.933 91.989 12.732 77.41-43.122 147.288-115.205 158.103-59.764 8.966-114.672-20.878-140.92-66.499-51.448-89.419 6.228-195.77 101.377-207.469 35.293-4.34 67.259 3.512 97.815 23.876zM3077.89 1341.123c32.493-11.828 63.972-13.616 95.287-2.714 52.323 18.216 84.126 55.328 93.092 109.673 8.73 52.914-9.197 97.636-51.282 130.702-81.027 63.663-203.827 20.876-221.675-86.641-9.411-56.692 11.46-103.261 58.792-136.867 7.53-5.347 16.19-9.102 25.786-14.153zM3267.03 2278.317c3.582 30.926-.94 58.57-14.774 84.758-27.15 51.396-82.239 79.79-141.662 72.51-55.24-6.767-102.172-49.265-115.273-104.63-19.702-83.25 35.594-151.433 101.394-167.246 77.3-18.578 151.886 30.427 167.739 103.148.708 3.249 1.518 6.475 2.576 11.46z"/></svg>